<svg xmlns="http://www.w3.org/2000/svg" xmlns:v="https://svgstorm.com"
viewBox = "0 0 960 960"
width="960"
height="960">
<style>
  svg {
    color: #1d1d1f;
  }
  @media (prefers-color-scheme: dark) {
    svg {
      color: #f5f5f7;
    }
  }
  g, path {
    stroke: currentColor !important;
  }
  g[fill="#FEFEFE"], path[fill="#FEFEFE"], [fill="#FEFEFE"] {
    fill: currentColor !important;
  }
</style>

<g fill="None" fill-opacity="0.0" stroke="#FEFEFE" stroke-opacity="1.00" stroke-width="0.3"><path d="
M 0.00 960.00 
L 960.00 960.00
L 960.00 0.00
L 0.00 0.00
L 0.00 960.00
M 682.00 178.00 
C 683.79 181.59 691.05 187.05 694.00 190.00
C 702.16 196.98 711.16 206.93 719.25 213.75 C 727.34 220.58 733.41 237.99 745.00 237.00
C 763.30 235.44 786.09 214.92 805.22 222.78 C 824.35 230.64 831.41 249.64 840.00 267.00
C 843.90 274.89 847.72 286.15 842.69 294.69 C 837.67 303.24 833.93 307.90 825.75 313.75 C 817.58 319.61 816.06 324.73 806.75 330.75 C 797.45 336.78 801.12 345.81 804.78 355.22 C 808.43 364.64 810.17 373.03 812.78 383.22 C 815.39 393.42 818.20 401.62 818.78 413.22 C 819.36 424.83 833.02 421.89 842.67 425.33 C 852.33 428.77 863.75 427.96 873.02 430.98 C 882.30 433.99 888.00 440.50 890.33 449.67 C 892.65 458.85 892.04 473.76 892.00 484.00 C 891.96 494.24 893.85 507.36 887.25 515.25 C 880.65 523.13 876.15 528.90 864.99 528.99 C 853.83 529.08 847.20 535.49 834.98 534.98 C 822.75 534.47 817.46 542.04 817.67 553.67 C 817.88 565.30 813.10 572.02 810.22 582.22 C 807.34 592.43 806.90 600.39 802.01 610.01 C 797.12 619.63 803.14 625.14 810.75 631.25 C 818.37 637.36 822.44 642.57 829.75 648.25 C 837.06 653.93 843.05 659.79 844.98 669.02 C 846.90 678.26 842.01 689.92 837.23 697.23 C 832.45 704.54 828.12 712.64 823.75 719.75 C 819.37 726.85 813.73 735.30 805.00 737.00
C 804.10 737.18 802.92 737.00 802.00 737.00
C 799.01 737.66 796.89 737.52 794.00 737.00
C 778.99 734.31 768.44 731.64 753.98 725.02 C 739.51 718.40 732.37 729.69 723.08 740.08 C 713.79 750.48 708.75 757.58 696.77 765.77 C 684.79 773.96 679.94 785.29 686.33 798.67 C 692.72 812.05 696.16 825.93 697.00 840.00 C 697.84 854.07 682.97 862.08 673.00 868.00
C 663.77 873.48 655.46 877.86 645.77 882.77 C 636.08 887.68 620.74 884.78 613.75 876.25 C 606.76 867.72 600.51 862.07 593.75 853.25 C 586.99 844.43 578.98 835.76 567.98 841.98 C 556.97 848.19 547.49 849.01 535.93 852.93 C 524.36 856.84 511.27 857.59 499.00 859.00
C 492.78 880.72 495.00 907.23 480.00 925.00
C 470.22 932.27 458.42 933.70 446.00 933.00 C 433.58 932.30 417.84 934.65 406.77 929.23 C 395.70 923.81 394.23 913.59 391.01 902.99 C 387.78 892.40 385.58 878.29 384.00 867.00 C 382.42 855.70 363.00 857.14 354.00 854.00
C 353.50 853.96 352.50 853.98 352.00 854.00
C 338.04 854.53 325.26 847.23 311.93 842.07 C 298.59 836.92 292.12 849.51 283.25 859.25 C 274.38 868.98 266.79 879.10 255.00 884.00
C 254.25 884.31 254.18 884.84 253.00 885.00
C 250.18 886.15 248.64 885.51 246.00 885.00
C 234.13 882.71 222.97 876.66 212.31 870.70 C 201.64 864.73 193.10 859.33 186.70 848.30 C 180.29 837.28 187.90 820.66 190.98 809.98 C 194.05 799.30 204.62 784.20 195.25 775.75 C 185.88 767.30 179.68 760.68 171.00 752.00
C 169.37 750.37 167.54 748.65 166.00 747.00
C 152.00 732.00 169.33 728.61 184.00 730.00 C 198.67 731.39 216.01 729.25 231.00 730.00 C 245.99 730.75 261.40 727.36 274.00 735.00
C 314.21 759.38 361.37 782.00 410.00 782.00
C 427.92 782.00 446.88 781.99 464.00 783.00
C 501.41 781.96 544.37 768.52 576.69 751.70 C 609.02 734.87 633.51 716.93 659.75 690.75 C 685.99 664.58 700.45 637.87 717.31 604.31 C 734.16 570.74 742.30 525.60 743.00 486.00 C 743.70 446.40 736.67 398.03 721.23 363.77 C 705.78 329.51 691.34 302.08 665.75 275.25 C 640.16 248.41 617.24 228.08 585.31 211.70 C 553.37 195.31 513.23 177.00 476.00 177.00
C 458.51 177.00 440.80 176.00 423.00 176.00
C 419.01 176.00 414.99 175.85 411.00 176.00
C 384.69 177.00 357.90 185.98 333.78 193.78 C 309.65 201.57 292.25 215.00 270.00 226.00
C 267.76 227.11 266.73 227.44 264.00 228.00
C 254.31 230.01 242.50 229.17 232.00 229.00 C 221.50 228.83 209.39 230.01 199.00 229.00 C 188.61 227.99 175.13 231.88 166.00 228.00
C 165.50 228.00 164.16 228.23 164.00 228.00
C 161.56 228.07 160.41 226.03 160.00 224.00
C 157.57 211.87 173.47 204.66 179.75 196.75 C 186.04 188.84 203.63 182.31 198.69 170.31 C 193.76 158.31 191.09 146.36 186.67 134.33 C 182.26 122.29 184.06 107.36 194.70 99.70 C 205.33 92.03 213.08 87.53 224.23 81.23 C 235.38 74.93 248.45 69.47 260.00 77.00
C 274.10 86.19 282.56 103.33 297.00 112.00
C 308.23 118.74 319.44 113.75 331.02 110.02 C 342.61 106.30 353.97 103.83 366.07 101.07 C 378.17 98.31 384.84 89.29 386.33 77.33 C 387.82 65.36 390.46 53.20 394.92 41.92 C 399.39 30.65 410.84 25.11 423.00 26.00 C 435.16 26.89 454.01 25.04 466.00 27.00 C 477.99 28.95 485.36 36.56 488.93 48.07 C 492.49 59.59 493.52 72.29 496.78 84.22 C 500.04 96.16 510.79 101.10 522.00 103.00 C 533.21 104.90 546.08 108.07 557.02 111.98 C 567.96 115.88 580.32 116.69 589.08 108.08 C 597.85 99.47 603.02 94.04 610.25 85.25 C 617.48 76.46 630.10 70.54 641.01 73.99 C 651.91 77.44 660.01 83.13 670.08 88.92 C 680.14 94.72 687.77 98.90 693.98 109.02 C 700.18 119.15 693.81 134.77 691.67 144.67 C 689.54 154.57 678.21 168.69 682.00 178.00
M 320.00 666.00 
C 319.51 666.08 318.50 666.00 318.00 666.00
C 309.71 669.52 300.37 671.00 289.98 668.02 C 279.58 665.05 270.44 666.85 260.97 663.02 C 251.51 659.19 242.19 655.85 231.99 653.01 C 221.79 650.17 214.36 648.66 204.78 644.22 C 195.19 639.79 190.18 630.45 192.00 619.00 C 193.82 607.55 193.83 594.75 194.98 582.98 C 196.13 571.21 196.20 558.92 197.00 547.00 C 197.80 535.08 197.77 522.02 198.00 510.00 C 198.23 497.98 195.49 486.67 193.22 475.78 C 190.96 464.88 189.59 456.00 184.25 446.75 C 178.90 437.50 179.23 426.21 175.22 416.78 C 171.22 407.35 169.41 397.58 165.68 388.32 C 161.94 379.07 160.86 367.51 160.78 358.78 C 160.70 350.05 163.98 337.11 174.08 335.08 C 184.17 333.04 192.30 342.65 196.97 350.03 C 201.65 357.40 209.02 363.81 215.25 369.75 C 221.49 375.68 228.21 383.07 235.25 388.75 C 242.29 394.44 250.29 398.17 258.08 403.92 C 265.87 409.66 274.47 413.19 283.23 417.77 C 291.99 422.35 300.27 424.36 309.69 429.31 C 319.12 434.25 332.82 432.21 344.00 433.00 C 355.18 433.79 370.37 434.90 382.00 434.00 C 393.63 433.10 408.23 436.10 419.00 433.00 C 429.77 429.90 439.92 428.87 450.22 427.78 C 460.52 426.69 470.79 422.75 480.25 420.80 C 489.70 418.86 499.50 414.09 508.68 411.68 C 517.85 409.27 524.49 402.26 532.23 398.23 C 539.98 394.21 547.39 387.72 554.25 382.25 C 561.10 376.77 567.35 370.89 574.25 364.25 C 581.15 357.61 587.53 351.72 594.25 345.25 C 600.96 338.77 607.09 332.40 613.30 326.30 C 619.50 320.20 625.65 311.57 633.75 308.75 C 641.84 305.92 657.39 299.58 664.74 307.26 C 672.10 314.93 664.35 329.72 661.03 337.03 C 657.72 344.35 649.39 355.11 650.00 363.00
C 640.78 372.84 638.00 384.07 629.23 393.23 C 620.46 402.39 610.17 412.51 604.25 422.25 C 598.32 431.99 591.37 443.30 583.23 454.23 C 575.09 465.16 570.84 478.53 565.07 492.07 C 559.30 505.61 558.23 523.38 557.00 539.00 C 555.77 554.62 555.17 573.14 557.98 588.03 C 560.79 602.92 560.05 617.71 557.00 633.00
C 546.79 647.05 532.52 652.31 515.98 658.98 C 499.43 665.64 481.28 670.27 463.00 671.00
C 464.98 667.17 461.51 668.22 459.00 669.00
C 459.67 673.26 450.03 672.96 442.98 673.98 C 435.92 674.99 425.66 671.18 419.32 667.68 C 412.98 664.17 412.28 653.66 411.02 645.98 C 409.77 638.29 410.10 629.95 409.07 621.93 C 408.05 613.90 406.97 602.61 406.22 594.78 C 405.47 586.95 403.55 578.95 402.02 570.98 C 400.50 563.00 397.79 554.70 395.67 547.33 C 393.55 539.96 391.69 535.32 384.78 531.22 C 377.86 527.13 369.11 533.62 363.92 537.92 C 358.73 542.22 351.28 546.17 349.69 553.69 C 348.11 561.22 345.43 565.58 343.03 573.03 C 340.63 580.48 338.14 588.15 336.01 596.01 C 333.87 603.87 334.80 614.15 334.02 622.03 C 333.24 629.90 332.54 639.05 330.07 646.07 C 327.61 653.10 327.92 662.87 320.00 666.00
M 480.00 396.00 
C 473.68 397.32 467.97 399.46 462.75 400.76 C 457.53 402.05 443.84 404.46 443.00 399.00
C 427.46 401.35 417.95 385.52 411.23 371.77 C 404.51 358.03 410.58 339.78 421.75 327.75 C 432.92 315.73 451.86 312.31 468.01 316.99 C 484.16 321.67 492.12 336.30 496.31 351.69 C 500.50 367.09 489.31 384.67 480.00 396.00
M 316.00 317.00 
C 346.77 321.40 360.87 363.91 341.70 386.70 C 322.52 409.48 281.19 403.09 270.08 374.92 C 258.96 346.76 282.56 312.22 316.00 317.00 Z"/>
</g>
<g fill="None" fill-opacity="0.0" stroke="#515151" stroke-opacity="1.00" stroke-width="0.3"><path d="
M 297.00 112.00 
C 297.19 112.96 296.85 114.03 297.00 115.00
C 291.51 115.92 284.43 110.40 281.25 105.75 C 278.07 101.11 271.59 96.36 268.25 91.75 C 264.90 87.15 257.50 81.10 260.00 77.00
C 248.45 69.47 235.38 74.93 224.23 81.23 C 213.08 87.53 205.33 92.03 194.70 99.70 C 184.06 107.36 182.26 122.29 186.67 134.33 C 191.09 146.36 193.76 158.31 198.69 170.31 C 203.63 182.31 186.04 188.84 179.75 196.75 C 173.47 204.66 157.57 211.87 160.00 224.00
C 160.52 225.67 162.38 226.61 164.00 227.00
C 181.28 225.44 199.85 228.22 217.00 226.00 C 234.15 223.78 254.19 231.07 270.00 226.00
C 292.25 215.00 309.65 201.57 333.78 193.78 C 357.90 185.98 384.69 177.00 411.00 176.00
C 415.14 175.20 419.10 174.00 424.00 174.00
C 441.79 174.00 459.50 174.32 476.00 177.00
C 513.23 177.00 553.37 195.31 585.31 211.70 C 617.24 228.08 640.16 248.41 665.75 275.25 C 691.34 302.08 705.78 329.51 721.23 363.77 C 736.67 398.03 743.70 446.40 743.00 486.00 C 742.30 525.60 734.16 570.74 717.31 604.31 C 700.45 637.87 685.99 664.58 659.75 690.75 C 633.51 716.93 609.02 734.87 576.69 751.70 C 544.37 768.52 501.41 781.96 464.00 783.00
C 462.00 783.06 460.00 783.00 458.00 783.00
C 457.90 783.02 458.00 784.00 458.00 784.00
C 465.16 784.00 473.66 783.17 480.00 785.00
C 475.94 786.78 475.30 784.22 474.00 790.00
C 450.90 791.08 422.67 795.75 399.00 790.00
C 405.13 788.18 400.82 789.11 403.00 786.00
C 390.20 785.29 376.02 784.53 363.00 782.00
C 367.24 777.43 357.17 780.45 354.33 778.67 C 351.49 776.89 347.42 774.69 343.00 776.00
C 343.80 771.94 338.59 773.60 336.00 774.00
C 332.85 768.43 322.53 766.88 315.92 763.08 C 309.31 759.28 300.37 755.67 293.77 752.23 C 287.17 748.79 281.09 740.64 274.00 741.00
C 273.12 738.25 274.57 736.30 274.00 735.00
C 261.40 727.36 245.99 730.75 231.00 730.00 C 216.01 729.25 198.67 731.39 184.00 730.00 C 169.33 728.61 152.00 732.00 166.00 747.00
C 168.49 748.61 169.50 749.19 171.00 752.00
C 179.68 760.68 185.88 767.30 195.25 775.75 C 204.62 784.20 194.05 799.30 190.98 809.98 C 187.90 820.66 180.29 837.28 186.70 848.30 C 193.10 859.33 201.64 864.73 212.31 870.70 C 222.97 876.66 234.13 882.71 246.00 885.00
C 242.16 883.03 256.07 878.85 255.00 884.00
C 266.79 879.10 274.38 868.98 283.25 859.25 C 292.12 849.51 298.59 836.92 311.93 842.07 C 325.26 847.23 338.04 854.53 352.00 854.00
C 350.91 853.69 348.47 852.45 348.00 851.00
C 351.50 851.62 356.32 849.73 359.00 852.00
C 358.98 854.11 356.60 854.26 354.00 854.00
C 363.00 857.14 382.42 855.70 384.00 867.00 C 385.58 878.29 387.78 892.40 391.01 902.99 C 394.23 913.59 395.70 923.81 406.77 929.23 C 417.84 934.65 433.58 932.30 446.00 933.00 C 458.42 933.70 470.22 932.27 480.00 925.00
C 477.94 922.60 480.66 919.14 483.00 918.00
C 479.74 911.80 484.83 902.42 486.33 894.33 C 487.82 886.23 489.78 877.89 488.00 869.00
C 491.77 877.51 488.16 859.13 495.10 857.10 C 502.04 855.07 510.28 856.48 516.74 853.74 C 523.20 851.01 530.51 850.37 536.68 846.68 C 542.85 842.99 552.55 844.93 559.00 842.00
C 559.02 838.36 564.68 837.38 572.22 836.78 C 579.77 836.18 580.55 835.72 588.75 841.25 C 596.95 846.78 606.35 858.70 611.19 866.25 C 616.04 873.80 620.62 871.32 621.00 879.00
C 632.57 883.47 646.02 876.90 656.00 871.00
C 661.23 874.33 664.24 868.12 669.00 868.00
C 661.31 866.97 667.21 864.67 672.00 864.00
C 668.81 865.82 671.00 866.71 673.00 868.00
C 682.97 862.08 697.84 854.07 697.00 840.00 C 696.16 825.93 692.72 812.05 686.33 798.67 C 679.94 785.29 684.79 773.96 696.77 765.77 C 708.75 757.58 713.79 750.48 723.08 740.08 C 732.37 729.69 739.51 718.40 753.98 725.02 C 768.44 731.64 778.99 734.31 794.00 737.00
C 794.29 736.96 796.80 735.44 799.00 735.00 C 801.20 734.56 805.06 737.00 805.00 737.00
C 813.73 735.30 819.37 726.85 823.75 719.75 C 828.12 712.64 832.45 704.54 837.23 697.23 C 842.01 689.92 846.90 678.26 844.98 669.02 C 843.05 659.79 837.06 653.93 829.75 648.25 C 822.44 642.57 818.37 637.36 810.75 631.25 C 803.14 625.14 797.12 619.63 802.01 610.01 C 806.90 600.39 807.34 592.43 810.22 582.22 C 813.10 572.02 817.88 565.30 817.67 553.67 C 817.46 542.04 822.75 534.47 834.98 534.98 C 847.20 535.49 853.83 529.08 864.99 528.99 C 876.15 528.90 880.65 523.13 887.25 515.25 C 893.85 507.36 891.96 494.24 892.00 484.00 C 892.04 473.76 892.65 458.85 890.33 449.67 C 888.00 440.50 882.30 433.99 873.02 430.98 C 863.75 427.96 852.33 428.77 842.67 425.33 C 833.02 421.89 819.36 424.83 818.78 413.22 C 818.20 401.62 815.39 393.42 812.78 383.22 C 810.17 373.03 808.43 364.64 804.78 355.22 C 801.12 345.81 797.45 336.78 806.75 330.75 C 816.06 324.73 817.58 319.61 825.75 313.75 C 833.93 307.90 837.67 303.24 842.69 294.69 C 847.72 286.15 843.90 274.89 840.00 267.00
C 837.86 266.48 837.19 269.57 835.00 269.00
C 833.48 262.80 830.87 256.59 826.81 252.75 C 822.74 248.91 821.47 241.02 818.65 237.30 C 815.83 233.58 810.03 230.99 804.78 229.22 C 799.52 227.45 791.52 228.20 787.23 229.57 C 782.94 230.94 780.04 229.54 774.00 229.00 C 767.96 228.47 766.28 237.51 760.32 237.32 C 754.37 237.13 747.42 240.02 745.00 237.00
C 733.41 237.99 727.34 220.58 719.25 213.75 C 711.16 206.93 702.16 196.98 694.00 190.00
C 690.46 186.98 683.78 182.37 682.00 178.00
C 678.21 168.69 689.54 154.57 691.67 144.67 C 693.81 134.77 700.18 119.15 693.98 109.02 C 687.77 98.90 680.14 94.72 670.08 88.92 C 660.01 83.13 651.91 77.44 641.01 73.99 C 630.10 70.54 617.48 76.46 610.25 85.25 C 603.02 94.04 597.85 99.47 589.08 108.08 C 580.32 116.69 567.96 115.88 557.02 111.98 C 546.08 108.07 533.21 104.90 522.00 103.00 C 510.79 101.10 500.04 96.16 496.78 84.22 C 493.52 72.29 492.49 59.59 488.93 48.07 C 485.36 36.56 477.99 28.95 466.00 27.00 C 454.01 25.04 435.16 26.89 423.00 26.00 C 410.84 25.11 399.39 30.65 394.92 41.92 C 390.46 53.20 387.82 65.36 386.33 77.33 C 384.84 89.29 378.17 98.31 366.07 101.07 C 353.97 103.83 342.61 106.30 331.02 110.02 C 319.44 113.75 308.23 118.74 297.00 112.00
M 479.00 173.00 
C 461.19 174.83 441.97 170.19 423.00 172.00
C 441.02 169.41 460.86 171.40 479.00 173.00
M 165.00 225.00 
C 161.50 227.91 160.94 221.41 161.00 219.00
C 161.96 220.93 163.53 223.09 165.00 225.00 Z"/>
</g>
<g fill="None" fill-opacity="0.0" stroke="#4A454E" stroke-opacity="1.00" stroke-width="0.3"><path d="
M 297.00 112.00 
C 282.56 103.33 274.10 86.19 260.00 77.00
C 257.50 81.10 264.90 87.15 268.25 91.75 C 271.59 96.36 278.07 101.11 281.25 105.75 C 284.43 110.40 291.51 115.92 297.00 115.00
C 296.85 114.03 297.19 112.96 297.00 112.00 Z"/>
</g>
<g fill="None" fill-opacity="0.0" stroke="#362D30" stroke-opacity="1.00" stroke-width="0.3"><path d="
M 479.00 173.00 
C 460.86 171.40 441.02 169.41 423.00 172.00
C 441.97 170.19 461.19 174.83 479.00 173.00 Z"/>
</g>
<g fill="None" fill-opacity="0.0" stroke="#9D989B" stroke-opacity="1.00" stroke-width="0.3"><path d="
M 411.00 176.00 
C 414.99 175.85 419.01 176.00 423.00 176.00
C 423.41 175.81 423.74 174.12 424.00 174.00
C 419.10 174.00 415.14 175.20 411.00 176.00 Z"/>
</g>
<g fill="None" fill-opacity="0.0" stroke="#C0BFC1" stroke-opacity="1.00" stroke-width="0.3"><path d="
M 423.00 176.00 
C 440.80 176.00 458.51 177.00 476.00 177.00
C 459.50 174.32 441.79 174.00 424.00 174.00
C 423.74 174.12 423.41 175.81 423.00 176.00 Z"/>
</g>
<g fill="None" fill-opacity="0.0" stroke="#A29B9F" stroke-opacity="1.00" stroke-width="0.3"><path d="
M 694.00 190.00 
C 691.05 187.05 683.79 181.59 682.00 178.00
C 683.78 182.37 690.46 186.98 694.00 190.00 Z"/>
</g>
<g fill="None" fill-opacity="0.0" stroke="#322F34" stroke-opacity="1.00" stroke-width="0.3"><path d="
M 165.00 225.00 
C 163.53 223.09 161.96 220.93 161.00 219.00
C 160.94 221.41 161.50 227.91 165.00 225.00 Z"/>
</g>
<g fill="None" fill-opacity="0.0" stroke="#49454B" stroke-opacity="1.00" stroke-width="0.3"><path d="
M 745.00 237.00 
C 747.42 240.02 754.37 237.13 760.32 237.32 C 766.28 237.51 767.96 228.47 774.00 229.00 C 780.04 229.54 782.94 230.94 787.23 229.57 C 791.52 228.20 799.52 227.45 804.78 229.22 C 810.03 230.99 815.83 233.58 818.65 237.30 C 821.47 241.02 822.74 248.91 826.81 252.75 C 830.87 256.59 833.48 262.80 835.00 269.00
C 837.19 269.57 837.86 266.48 840.00 267.00
C 831.41 249.64 824.35 230.64 805.22 222.78 C 786.09 214.92 763.30 235.44 745.00 237.00 Z"/>
</g>
<g fill="None" fill-opacity="0.0" stroke="#B6B1B6" stroke-opacity="1.00" stroke-width="0.3"><path d="
M 164.00 228.00 
C 163.77 227.66 164.00 227.00 164.00 227.00
C 162.38 226.61 160.52 225.67 160.00 224.00
C 160.41 226.03 161.56 228.07 164.00 228.00 Z"/>
</g>
<g fill="None" fill-opacity="0.0" stroke="#716F6F" stroke-opacity="1.00" stroke-width="0.3"><path d="
M 164.00 227.00 
C 164.00 227.00 163.77 227.66 164.00 228.00
C 164.16 228.23 165.50 228.00 166.00 228.00
C 198.21 228.00 231.94 230.91 264.00 228.00
C 266.73 227.44 267.76 227.11 270.00 226.00
C 254.19 231.07 234.15 223.78 217.00 226.00 C 199.85 228.22 181.28 225.44 164.00 227.00 Z"/>
</g>
<g fill="None" fill-opacity="0.0" stroke="#B5B3B5" stroke-opacity="1.00" stroke-width="0.3"><path d="
M 264.00 228.00 
C 231.94 230.91 198.21 228.00 166.00 228.00
C 175.13 231.88 188.61 227.99 199.00 229.00 C 209.39 230.01 221.50 228.83 232.00 229.00 C 242.50 229.17 254.31 230.01 264.00 228.00 Z"/>
</g>
<g fill="None" fill-opacity="0.0" stroke="#CFFBFB" stroke-opacity="1.00" stroke-width="0.3"><path d="
M 318.00 666.00 
C 309.00 666.01 299.24 665.80 291.00 665.00
C 264.80 665.00 241.93 652.67 218.00 645.00
C 210.16 642.49 207.27 639.22 199.75 635.25 C 192.24 631.28 193.32 620.64 194.00 612.00 C 194.68 603.36 196.97 594.88 197.00 586.00 C 197.03 577.12 198.20 567.28 199.00 559.00
C 199.00 539.21 199.48 513.17 199.00 494.00 C 198.52 474.83 191.14 457.70 186.02 440.98 C 180.91 424.25 173.84 408.11 170.01 391.99 C 166.17 375.88 153.11 354.34 169.75 341.75 C 186.40 329.17 194.88 355.00 204.31 365.69 C 213.73 376.39 226.25 387.02 238.08 396.92 C 249.91 406.82 264.99 414.29 279.68 421.32 C 294.36 428.35 313.52 436.00 331.00 436.00
C 336.33 436.00 341.67 436.00 347.00 436.00
C 368.68 436.00 391.84 435.30 413.02 435.02 C 434.20 434.75 451.63 427.97 472.00 426.00
C 482.04 425.03 493.63 421.78 502.67 417.67 C 511.72 413.57 520.33 408.76 529.08 404.08 C 537.84 399.40 544.64 392.70 552.68 387.68 C 560.72 382.66 565.36 373.54 572.75 367.75 C 580.14 361.96 587.15 355.88 593.75 348.75 C 600.35 341.62 607.27 336.11 613.75 328.75 C 620.24 321.39 627.55 317.01 635.23 311.23 C 642.91 305.45 661.64 301.38 662.00 314.00 C 662.36 326.62 655.55 333.30 651.23 343.23 C 646.91 353.16 641.86 360.00 636.68 368.68 C 631.50 377.36 625.03 383.51 619.75 391.75 C 614.47 399.99 609.16 407.33 603.08 415.08 C 597.00 422.84 593.29 430.11 586.75 437.75 C 580.22 445.39 575.67 452.94 571.08 462.08 C 566.48 471.21 562.37 479.54 558.69 489.69 C 555.02 499.85 552.43 510.44 551.00 522.00 C 549.57 533.57 549.94 548.62 550.00 561.00 C 550.06 573.38 552.00 586.52 552.00 599.00
C 552.91 608.41 556.60 621.14 551.23 630.23 C 545.86 639.32 538.58 641.08 530.00 645.00
C 518.83 652.28 506.83 654.69 493.98 657.98 C 481.13 661.26 466.56 665.92 453.00 667.00
C 444.82 668.58 426.30 670.81 419.00 666.00
C 418.30 665.54 416.76 666.37 416.00 666.00
C 417.07 651.14 413.19 637.55 413.00 623.00
C 412.32 618.24 410.21 613.46 410.00 608.00
C 409.43 593.18 407.11 576.00 404.00 562.00 C 400.89 548.00 395.81 536.81 388.08 524.92 C 380.35 513.02 366.15 526.87 358.25 535.25 C 350.35 543.62 341.69 556.10 338.22 568.22 C 334.76 580.34 330.54 599.76 330.00 613.00
C 329.84 616.98 328.66 619.81 328.00 623.00
C 327.48 635.77 324.42 647.70 322.00 660.00
C 321.66 661.74 322.07 664.98 320.00 666.00
C 327.92 662.87 327.61 653.10 330.07 646.07 C 332.54 639.05 333.24 629.90 334.02 622.03 C 334.80 614.15 333.87 603.87 336.01 596.01 C 338.14 588.15 340.63 580.48 343.03 573.03 C 345.43 565.58 348.11 561.22 349.69 553.69 C 351.28 546.17 358.73 542.22 363.92 537.92 C 369.11 533.62 377.86 527.13 384.78 531.22 C 391.69 535.32 393.55 539.96 395.67 547.33 C 397.79 554.70 400.50 563.00 402.02 570.98 C 403.55 578.95 405.47 586.95 406.22 594.78 C 406.97 602.61 408.05 613.90 409.07 621.93 C 410.10 629.95 409.77 638.29 411.02 645.98 C 412.28 653.66 412.98 664.17 419.32 667.68 C 425.66 671.18 435.92 674.99 442.98 673.98 C 450.03 672.96 459.67 673.26 459.00 669.00
C 461.51 668.22 464.98 667.17 463.00 671.00
C 481.28 670.27 499.43 665.64 515.98 658.98 C 532.52 652.31 546.79 647.05 557.00 633.00
C 560.05 617.71 560.79 602.92 557.98 588.03 C 555.17 573.14 555.77 554.62 557.00 539.00 C 558.23 523.38 559.30 505.61 565.07 492.07 C 570.84 478.53 575.09 465.16 583.23 454.23 C 591.37 443.30 598.32 431.99 604.25 422.25 C 610.17 412.51 620.46 402.39 629.23 393.23 C 638.00 384.07 640.78 372.84 650.00 363.00
C 649.39 355.11 657.72 344.35 661.03 337.03 C 664.35 329.72 672.10 314.93 664.74 307.26 C 657.39 299.58 641.84 305.92 633.75 308.75 C 625.65 311.57 619.50 320.20 613.30 326.30 C 607.09 332.40 600.96 338.77 594.25 345.25 C 587.53 351.72 581.15 357.61 574.25 364.25 C 567.35 370.89 561.10 376.77 554.25 382.25 C 547.39 387.72 539.98 394.21 532.23 398.23 C 524.49 402.26 517.85 409.27 508.68 411.68 C 499.50 414.09 489.70 418.86 480.25 420.80 C 470.79 422.75 460.52 426.69 450.22 427.78 C 439.92 428.87 429.77 429.90 419.00 433.00 C 408.23 436.10 393.63 433.10 382.00 434.00 C 370.37 434.90 355.18 433.79 344.00 433.00 C 332.82 432.21 319.12 434.25 309.69 429.31 C 300.27 424.36 291.99 422.35 283.23 417.77 C 274.47 413.19 265.87 409.66 258.08 403.92 C 250.29 398.17 242.29 394.44 235.25 388.75 C 228.21 383.07 221.49 375.68 215.25 369.75 C 209.02 363.81 201.65 357.40 196.97 350.03 C 192.30 342.65 184.17 333.04 174.08 335.08 C 163.98 337.11 160.70 350.05 160.78 358.78 C 160.86 367.51 161.94 379.07 165.68 388.32 C 169.41 397.58 171.22 407.35 175.22 416.78 C 179.23 426.21 178.90 437.50 184.25 446.75 C 189.59 456.00 190.96 464.88 193.22 475.78 C 195.49 486.67 198.23 497.98 198.00 510.00 C 197.77 522.02 197.80 535.08 197.00 547.00 C 196.20 558.92 196.13 571.21 194.98 582.98 C 193.83 594.75 193.82 607.55 192.00 619.00 C 190.18 630.45 195.19 639.79 204.78 644.22 C 214.36 648.66 221.79 650.17 231.99 653.01 C 242.19 655.85 251.51 659.19 260.97 663.02 C 270.44 666.85 279.58 665.05 289.98 668.02 C 300.37 671.00 309.71 669.52 318.00 666.00 Z"/>
</g>
<g fill="None" fill-opacity="0.0" stroke="#30ADC5" stroke-opacity="1.00" stroke-width="0.3"><path d="
M 472.00 426.00 
C 455.31 430.66 438.42 436.00 420.00 436.00
C 399.37 439.98 373.49 441.26 349.00 440.00
C 356.93 437.74 350.46 438.57 345.78 437.22 C 341.10 435.87 334.89 438.60 331.00 436.00
C 313.52 436.00 294.36 428.35 279.68 421.32 C 264.99 414.29 249.91 406.82 238.08 396.92 C 226.25 387.02 213.73 376.39 204.31 365.69 C 194.88 355.00 186.40 329.17 169.75 341.75 C 153.11 354.34 166.17 375.88 170.01 391.99 C 173.84 408.11 180.91 424.25 186.02 440.98 C 191.14 457.70 198.52 474.83 199.00 494.00 C 199.48 513.17 199.00 539.21 199.00 559.00
C 199.00 577.27 199.86 592.65 198.00 611.00 C 196.14 629.35 201.90 637.81 218.00 645.00
C 241.93 652.67 264.80 665.00 291.00 665.00
C 300.67 665.00 310.33 665.00 320.00 665.00
C 319.88 663.17 319.74 660.54 322.00 660.00
C 324.42 647.70 327.48 635.77 328.00 623.00
C 328.16 619.01 329.34 616.19 330.00 613.00
C 330.54 599.76 334.76 580.34 338.22 568.22 C 341.69 556.10 350.35 543.62 358.25 535.25 C 366.15 526.87 380.35 513.02 388.08 524.92 C 395.81 536.81 400.89 548.00 404.00 562.00 C 407.11 576.00 409.43 593.18 410.00 608.00
C 410.21 609.22 410.89 613.31 413.00 613.00
C 413.72 598.12 416.11 585.03 413.22 567.78 C 410.34 550.53 402.42 544.11 396.75 529.81 C 391.07 515.51 372.38 510.58 361.71 522.71 C 351.03 534.83 341.41 537.93 338.00 555.00
C 334.26 553.07 334.35 564.29 332.22 569.22 C 330.10 574.15 330.73 577.54 330.02 583.03 C 329.31 588.51 326.74 596.75 326.07 603.07 C 325.41 609.40 320.36 615.50 321.07 622.07 C 321.79 628.65 321.18 636.35 320.00 643.00 C 318.82 649.66 316.84 654.29 316.00 660.00
C 289.47 663.96 263.03 650.68 237.00 649.00
C 238.31 646.89 230.21 642.95 226.87 641.08 C 223.53 639.21 213.43 636.90 210.00 637.00
C 208.29 633.92 207.09 629.66 203.00 628.00
C 204.82 620.49 203.70 610.75 204.00 603.00 C 204.30 595.25 202.30 586.54 203.00 579.00 C 203.70 571.46 198.86 562.99 204.00 561.00
C 204.50 547.38 203.48 532.57 204.00 519.00 C 204.52 505.43 202.99 489.42 202.02 475.98 C 201.06 462.53 196.21 452.95 192.23 440.77 C 188.24 428.59 185.63 418.91 181.07 406.93 C 176.51 394.95 174.87 382.61 170.08 370.92 C 165.29 359.23 174.61 345.04 187.00 351.00
C 190.07 357.78 195.69 364.30 202.00 368.00
C 202.42 373.53 207.97 379.76 212.75 382.59 C 217.53 385.41 222.84 389.83 227.30 393.70 C 231.76 397.58 237.04 402.02 240.75 405.59 C 244.46 409.15 251.78 411.80 256.08 415.92 C 260.37 420.05 265.34 421.00 270.01 423.99 C 274.68 426.98 279.59 427.65 285.10 431.90 C 290.61 436.16 296.81 437.12 303.23 439.77 C 309.65 442.42 317.25 444.75 325.22 444.78 C 333.19 444.80 341.86 446.61 350.00 446.00 C 358.14 445.39 369.20 446.77 377.00 446.00 C 384.80 445.23 395.36 447.72 402.00 447.00 C 408.64 446.28 422.67 444.50 416.00 442.00
C 423.69 441.77 432.35 440.98 439.67 439.67 C 446.99 438.37 457.43 439.28 464.07 437.07 C 470.72 434.87 478.56 433.97 483.75 430.75 C 488.93 427.52 498.02 425.84 503.23 423.23 C 508.43 420.62 516.41 418.74 514.00 413.00
C 517.00 413.10 520.43 412.17 522.00 415.00
C 525.31 410.25 535.96 407.95 540.70 402.70 C 545.43 397.45 551.41 393.23 558.00 392.00
C 558.37 388.23 564.75 380.63 570.00 382.00
C 567.94 376.90 574.90 376.81 574.97 372.97 C 575.03 369.13 582.78 368.14 579.00 366.00
C 584.39 367.29 583.59 361.38 588.00 363.00
C 586.73 358.85 590.39 357.10 593.75 353.75 C 597.12 350.41 601.69 347.12 606.00 348.00
C 613.66 335.66 623.53 326.44 632.75 317.75 C 641.97 309.07 643.52 313.43 653.00 312.00
C 657.33 331.01 641.40 345.77 634.23 359.57 C 627.06 373.37 612.08 386.01 608.00 402.00
C 601.17 402.13 598.38 407.71 594.25 413.25 C 590.11 418.79 588.98 425.93 583.70 430.70 C 578.41 435.47 577.79 440.89 572.70 445.70 C 567.60 450.50 563.97 456.24 561.90 462.90 C 559.83 469.56 557.84 478.44 553.00 482.00
C 550.68 490.52 549.09 500.63 547.22 511.22 C 545.35 521.81 542.78 533.02 543.80 544.25 C 544.82 555.47 543.23 569.06 544.33 579.67 C 545.43 590.29 545.85 604.02 546.33 614.67 C 546.81 625.32 539.31 631.33 531.08 636.08 C 522.86 640.84 516.95 644.67 508.75 647.76 C 500.55 650.84 490.85 651.72 481.93 655.93 C 473.00 660.14 461.46 660.41 453.10 660.88 C 444.74 661.36 437.09 658.71 429.00 659.00
C 419.75 646.64 423.21 629.04 420.00 615.00
C 416.38 614.65 414.60 611.08 416.00 608.00
C 412.36 610.42 413.51 618.20 413.00 623.00
C 413.19 637.55 417.07 651.14 416.00 666.00
C 416.76 666.37 418.30 665.54 419.00 666.00
C 426.91 669.70 444.13 667.70 453.00 667.00
C 466.56 665.92 481.13 661.26 493.98 657.98 C 506.83 654.69 518.83 652.28 530.00 645.00
C 537.63 640.03 543.77 638.12 548.77 629.77 C 553.77 621.42 552.00 609.12 552.00 599.00
C 552.00 586.52 550.06 573.38 550.00 561.00 C 549.94 548.62 549.57 533.57 551.00 522.00 C 552.43 510.44 555.02 499.85 558.69 489.69 C 562.37 479.54 566.48 471.21 571.08 462.08 C 575.67 452.94 580.22 445.39 586.75 437.75 C 593.29 430.11 597.00 422.84 603.08 415.08 C 609.16 407.33 614.47 399.99 619.75 391.75 C 625.03 383.51 631.50 377.36 636.68 368.68 C 641.86 360.00 646.91 353.16 651.23 343.23 C 655.55 333.30 662.36 326.62 662.00 314.00 C 661.64 301.38 642.91 305.45 635.23 311.23 C 627.55 317.01 620.24 321.39 613.75 328.75 C 607.27 336.11 600.35 341.62 593.75 348.75 C 587.15 355.88 580.14 361.96 572.75 367.75 C 565.36 373.54 560.72 382.66 552.68 387.68 C 544.64 392.70 537.84 399.40 529.08 404.08 C 520.33 408.76 511.72 413.57 502.67 417.67 C 493.63 421.78 482.04 425.03 472.00 426.00
M 178.00 340.00 
C 173.25 340.94 170.94 348.99 166.00 347.00
C 168.98 343.65 173.00 337.09 178.00 340.00 Z"/>
</g>
<g fill="None" fill-opacity="0.0" stroke="#0CC0DF" stroke-opacity="1.00" stroke-width="0.3"><path d="
M 410.00 608.00 
C 410.21 613.46 412.32 618.24 413.00 623.00
C 413.51 618.20 412.36 610.42 416.00 608.00
C 414.60 611.08 416.38 614.65 420.00 615.00
C 423.21 629.04 419.75 646.64 429.00 659.00
C 437.09 658.71 444.74 661.36 453.10 660.88 C 461.46 660.41 473.00 660.14 481.93 655.93 C 490.85 651.72 500.55 650.84 508.75 647.76 C 516.95 644.67 522.86 640.84 531.08 636.08 C 539.31 631.33 546.81 625.32 546.33 614.67 C 545.85 604.02 545.43 590.29 544.33 579.67 C 543.23 569.06 544.82 555.47 543.80 544.25 C 542.78 533.02 545.35 521.81 547.22 511.22 C 549.09 500.63 550.68 490.52 553.00 482.00
C 557.84 478.44 559.83 469.56 561.90 462.90 C 563.97 456.24 567.60 450.50 572.70 445.70 C 577.79 440.89 578.41 435.47 583.70 430.70 C 588.98 425.93 590.11 418.79 594.25 413.25 C 598.38 407.71 601.17 402.13 608.00 402.00
C 612.08 386.01 627.06 373.37 634.23 359.57 C 641.40 345.77 657.33 331.01 653.00 312.00
C 643.52 313.43 641.97 309.07 632.75 317.75 C 623.53 326.44 613.66 335.66 606.00 348.00
C 601.69 347.12 597.12 350.41 593.75 353.75 C 590.39 357.10 586.73 358.85 588.00 363.00
C 583.59 361.38 584.39 367.29 579.00 366.00
C 582.78 368.14 575.03 369.13 574.97 372.97 C 574.90 376.81 567.94 376.90 570.00 382.00
C 564.75 380.63 558.37 388.23 558.00 392.00
C 551.41 393.23 545.43 397.45 540.70 402.70 C 535.96 407.95 525.31 410.25 522.00 415.00
C 520.43 412.17 517.00 413.10 514.00 413.00
C 516.41 418.74 508.43 420.62 503.23 423.23 C 498.02 425.84 488.93 427.52 483.75 430.75 C 478.56 433.97 470.72 434.87 464.07 437.07 C 457.43 439.28 446.99 438.37 439.67 439.67 C 432.35 440.98 423.69 441.77 416.00 442.00
C 422.67 444.50 408.64 446.28 402.00 447.00 C 395.36 447.72 384.80 445.23 377.00 446.00 C 369.20 446.77 358.14 445.39 350.00 446.00 C 341.86 446.61 333.19 444.80 325.22 444.78 C 317.25 444.75 309.65 442.42 303.23 439.77 C 296.81 437.12 290.61 436.16 285.10 431.90 C 279.59 427.65 274.68 426.98 270.01 423.99 C 265.34 421.00 260.37 420.05 256.08 415.92 C 251.78 411.80 244.46 409.15 240.75 405.59 C 237.04 402.02 231.76 397.58 227.30 393.70 C 222.84 389.83 217.53 385.41 212.75 382.59 C 207.97 379.76 202.42 373.53 202.00 368.00
C 195.69 364.30 190.07 357.78 187.00 351.00
C 174.61 345.04 165.29 359.23 170.08 370.92 C 174.87 382.61 176.51 394.95 181.07 406.93 C 185.63 418.91 188.24 428.59 192.23 440.77 C 196.21 452.95 201.06 462.53 202.02 475.98 C 202.99 489.42 204.52 505.43 204.00 519.00 C 203.48 532.57 204.50 547.38 204.00 561.00
C 198.86 562.99 203.70 571.46 203.00 579.00 C 202.30 586.54 204.30 595.25 204.00 603.00 C 203.70 610.75 204.82 620.49 203.00 628.00
C 207.09 629.66 208.29 633.92 210.00 637.00
C 213.43 636.90 223.53 639.21 226.87 641.08 C 230.21 642.95 238.31 646.89 237.00 649.00
C 263.03 650.68 289.47 663.96 316.00 660.00
C 316.84 654.29 318.82 649.66 320.00 643.00 C 321.18 636.35 321.79 628.65 321.07 622.07 C 320.36 615.50 325.41 609.40 326.07 603.07 C 326.74 596.75 329.31 588.51 330.02 583.03 C 330.73 577.54 330.10 574.15 332.22 569.22 C 334.35 564.29 334.26 553.07 338.00 555.00
C 341.41 537.93 351.03 534.83 361.71 522.71 C 372.38 510.58 391.07 515.51 396.75 529.81 C 402.42 544.11 410.34 550.53 413.22 567.78 C 416.11 585.03 413.72 598.12 413.00 613.00
C 410.89 613.31 410.21 609.22 410.00 608.00 Z"/>
</g>
<g fill="None" fill-opacity="0.0" stroke="#E1FEFD" stroke-opacity="1.00" stroke-width="0.3"><path d="
M 480.00 396.00 
C 489.31 384.67 500.50 367.09 496.31 351.69 C 492.12 336.30 484.16 321.67 468.01 316.99 C 451.86 312.31 432.92 315.73 421.75 327.75 C 410.58 339.78 404.51 358.03 411.23 371.77 C 417.95 385.52 427.46 401.35 443.00 399.00
C 443.84 404.46 457.53 402.05 462.75 400.76 C 467.97 399.46 473.68 397.32 480.00 396.00
M 488.00 339.00 
C 488.17 339.95 487.76 341.06 488.00 342.00
C 488.46 343.82 489.56 344.98 490.00 347.00
C 491.17 349.87 491.50 351.51 492.00 355.00
C 493.16 363.11 491.07 372.77 486.70 379.69 C 482.32 386.62 477.53 393.09 469.92 394.92 C 462.32 396.76 447.37 400.72 441.00 396.00
C 440.50 396.00 440.00 396.00 440.00 396.00
C 430.07 393.67 422.99 385.92 418.08 377.92 C 413.17 369.92 407.32 356.17 411.78 347.78 C 416.24 339.39 418.69 326.01 429.00 324.00
C 429.48 323.91 430.00 324.00 430.00 324.00
C 432.13 322.66 434.64 321.76 437.00 321.00
C 452.14 313.09 484.17 317.97 488.00 339.00 Z"/>
</g>
<g fill="None" fill-opacity="0.0" stroke="#C0F7F8" stroke-opacity="1.00" stroke-width="0.3"><path d="
M 316.00 317.00 
C 282.56 312.22 258.96 346.76 270.08 374.92 C 281.19 403.09 322.52 409.48 341.70 386.70 C 360.87 363.91 346.77 321.40 316.00 317.00
M 346.00 371.00 
C 342.81 385.17 329.52 394.30 316.00 397.00
C 288.63 402.47 263.30 376.03 270.00 349.00
C 275.09 328.45 297.64 313.85 319.07 319.93 C 340.51 326.00 350.78 349.79 346.00 371.00 Z"/>
</g>
<g fill="None" fill-opacity="0.0" stroke="#AFEDF3" stroke-opacity="1.00" stroke-width="0.3"><path d="
M 437.00 321.00 
C 448.07 317.45 458.29 317.38 469.00 322.00
C 475.04 324.61 486.07 332.36 488.00 339.00
C 484.17 317.97 452.14 313.09 437.00 321.00 Z"/>
</g>
<g fill="None" fill-opacity="0.0" stroke="#2F9EB8" stroke-opacity="1.00" stroke-width="0.3"><path d="
M 437.00 321.00 
C 434.64 321.76 432.13 322.66 430.00 324.00
C 427.98 328.84 421.00 330.65 421.00 336.00
C 428.48 325.14 444.96 321.33 457.00 322.00 C 469.04 322.67 473.81 335.89 484.00 339.00
C 485.87 349.08 486.10 360.71 487.00 372.00
C 488.53 371.26 487.67 368.23 490.00 368.00
C 490.68 365.37 490.85 362.82 491.00 360.00
C 491.23 355.72 490.90 351.09 490.00 347.00
C 489.56 344.98 488.46 343.82 488.00 342.00
C 483.86 336.51 475.55 325.89 469.00 322.00
C 458.29 317.38 448.07 317.45 437.00 321.00 Z"/>
</g>
<g fill="None" fill-opacity="0.0" stroke="#29A9C4" stroke-opacity="1.00" stroke-width="0.3"><path d="
M 270.00 349.00 
C 266.92 373.81 287.61 403.76 315.00 396.00
C 300.51 392.22 290.45 389.60 284.07 377.93 C 277.69 366.25 275.77 349.74 286.25 339.25 C 296.74 328.77 306.39 321.71 322.00 326.00
C 326.48 330.89 331.06 334.74 335.92 341.08 C 340.78 347.42 339.62 355.26 339.01 363.01 C 338.40 370.76 335.35 378.17 329.75 382.75 C 324.15 387.32 318.91 389.25 312.00 393.00
C 320.21 395.26 329.57 388.96 337.00 384.00
C 339.79 380.29 344.07 375.00 346.00 371.00
C 350.78 349.79 340.51 326.00 319.07 319.93 C 297.64 313.85 275.09 328.45 270.00 349.00 Z"/>
</g>
<g fill="None" fill-opacity="0.0" stroke="#1CB9D7" stroke-opacity="1.00" stroke-width="0.3"><path d="
M 430.00 324.00 
C 430.00 324.00 429.48 323.91 429.00 324.00
C 420.04 336.83 407.80 346.72 412.93 364.07 C 418.05 381.43 427.54 385.99 440.00 396.00
C 440.00 396.00 440.50 396.00 441.00 396.00
C 463.27 396.00 483.68 392.36 490.00 368.00
C 487.67 368.23 488.53 371.26 487.00 372.00
C 486.10 360.71 485.87 349.08 484.00 339.00
C 473.81 335.89 469.04 322.67 457.00 322.00 C 444.96 321.33 428.48 325.14 421.00 336.00
C 421.00 330.65 427.98 328.84 430.00 324.00 Z"/>
</g>
<g fill="None" fill-opacity="0.0" stroke="#5AB6C8" stroke-opacity="1.00" stroke-width="0.3"><path d="
M 488.00 342.00 
C 487.76 341.06 488.17 339.95 488.00 339.00
C 486.07 332.36 475.04 324.61 469.00 322.00
C 475.55 325.89 483.86 336.51 488.00 342.00 Z"/>
</g>
<g fill="None" fill-opacity="0.0" stroke="#17BEDA" stroke-opacity="1.00" stroke-width="0.3"><path d="
M 270.00 349.00 
C 263.30 376.03 288.63 402.47 316.00 397.00
C 323.29 394.63 332.08 390.55 337.00 384.00
C 329.57 388.96 320.21 395.26 312.00 393.00
C 318.91 389.25 324.15 387.32 329.75 382.75 C 335.35 378.17 338.40 370.76 339.01 363.01 C 339.62 355.26 340.78 347.42 335.92 341.08 C 331.06 334.74 326.48 330.89 322.00 326.00
C 306.39 321.71 296.74 328.77 286.25 339.25 C 275.77 349.74 277.69 366.25 284.07 377.93 C 290.45 389.60 300.51 392.22 315.00 396.00
C 287.61 403.76 266.92 373.81 270.00 349.00 Z"/>
</g>
<g fill="None" fill-opacity="0.0" stroke="#A9EFF4" stroke-opacity="1.00" stroke-width="0.3"><path d="
M 440.00 396.00 
C 427.54 385.99 418.05 381.43 412.93 364.07 C 407.80 346.72 420.04 336.83 429.00 324.00
C 418.69 326.01 416.24 339.39 411.78 347.78 C 407.32 356.17 413.17 369.92 418.08 377.92 C 422.99 385.92 430.07 393.67 440.00 396.00 Z"/>
</g>
<g fill="None" fill-opacity="0.0" stroke="#29949B" stroke-opacity="1.00" stroke-width="0.3"><path d="
M 178.00 340.00 
C 173.00 337.09 168.98 343.65 166.00 347.00
C 170.94 348.99 173.25 340.94 178.00 340.00 Z"/>
</g>
<g fill="None" fill-opacity="0.0" stroke="#74C0D3" stroke-opacity="1.00" stroke-width="0.3"><path d="
M 491.00 360.00 
C 491.27 358.63 491.98 356.97 492.00 355.00
C 491.50 351.51 491.17 349.87 490.00 347.00
C 490.90 351.09 491.23 355.72 491.00 360.00 Z"/>
</g>
<g fill="None" fill-opacity="0.0" stroke="#AAEFF0" stroke-opacity="1.00" stroke-width="0.3"><path d="
M 491.00 360.00 
C 490.85 362.82 490.68 365.37 490.00 368.00
C 483.68 392.36 463.27 396.00 441.00 396.00
C 447.37 400.72 462.32 396.76 469.92 394.92 C 477.53 393.09 482.32 386.62 486.70 379.69 C 491.07 372.77 493.16 363.11 492.00 355.00
C 491.98 356.97 491.27 358.63 491.00 360.00 Z"/>
</g>
<g fill="None" fill-opacity="0.0" stroke="#72CFD2" stroke-opacity="1.00" stroke-width="0.3"><path d="
M 337.00 384.00 
C 332.08 390.55 323.29 394.63 316.00 397.00
C 329.52 394.30 342.81 385.17 346.00 371.00
C 344.07 375.00 339.79 380.29 337.00 384.00 Z"/>
</g>
<g fill="None" fill-opacity="0.0" stroke="#9AE7EF" stroke-opacity="1.00" stroke-width="0.3"><path d="
M 347.00 436.00 
C 370.83 438.31 395.95 436.00 420.00 436.00
C 438.42 436.00 455.31 430.66 472.00 426.00
C 451.63 427.97 434.20 434.75 413.02 435.02 C 391.84 435.30 368.68 436.00 347.00 436.00 Z"/>
</g>
<g fill="None" fill-opacity="0.0" stroke="#69CCE0" stroke-opacity="1.00" stroke-width="0.3"><path d="
M 420.00 436.00 
C 395.95 436.00 370.83 438.31 347.00 436.00
C 341.67 436.00 336.33 436.00 331.00 436.00
C 334.89 438.60 341.10 435.87 345.78 437.22 C 350.46 438.57 356.93 437.74 349.00 440.00
C 373.49 441.26 399.37 439.98 420.00 436.00 Z"/>
</g>
<g fill="None" fill-opacity="0.0" stroke="#70D0E0" stroke-opacity="1.00" stroke-width="0.3"><path d="
M 218.00 645.00 
C 201.90 637.81 196.14 629.35 198.00 611.00 C 199.86 592.65 199.00 577.27 199.00 559.00
C 198.20 567.28 197.03 577.12 197.00 586.00 C 196.97 594.88 194.68 603.36 194.00 612.00 C 193.32 620.64 192.24 631.28 199.75 635.25 C 207.27 639.22 210.16 642.49 218.00 645.00 Z"/>
</g>
<g fill="None" fill-opacity="0.0" stroke="#66C3C5" stroke-opacity="1.00" stroke-width="0.3"><path d="
M 530.00 645.00 
C 538.58 641.08 545.86 639.32 551.23 630.23 C 556.60 621.14 552.91 608.41 552.00 599.00
C 552.00 609.12 553.77 621.42 548.77 629.77 C 543.77 638.12 537.63 640.03 530.00 645.00 Z"/>
</g>
<g fill="None" fill-opacity="0.0" stroke="#62CECF" stroke-opacity="1.00" stroke-width="0.3"><path d="
M 328.00 623.00 
C 328.66 619.81 329.84 616.98 330.00 613.00
C 329.34 616.19 328.16 619.01 328.00 623.00 Z"/>
</g>
<g fill="None" fill-opacity="0.0" stroke="#8BD9DF" stroke-opacity="1.00" stroke-width="0.3"><path d="
M 291.00 665.00 
C 299.24 665.80 309.00 666.01 318.00 666.00
C 318.50 666.00 319.51 666.08 320.00 666.00
C 322.07 664.98 321.66 661.74 322.00 660.00
C 319.74 660.54 319.88 663.17 320.00 665.00
C 310.33 665.00 300.67 665.00 291.00 665.00 Z"/>
</g>
<g fill="None" fill-opacity="0.0" stroke="#83C3CA" stroke-opacity="1.00" stroke-width="0.3"><path d="
M 453.00 667.00 
C 444.13 667.70 426.91 669.70 419.00 666.00
C 426.30 670.81 444.82 668.58 453.00 667.00 Z"/>
</g>
<g fill="None" fill-opacity="0.0" stroke="#49454B" stroke-opacity="1.00" stroke-width="0.3"><path d="
M 458.00 784.00 
C 444.73 784.00 430.48 784.21 418.00 783.00
C 415.23 783.00 412.04 782.20 410.00 782.00
C 361.37 782.00 314.21 759.38 274.00 735.00
C 274.57 736.30 273.12 738.25 274.00 741.00
C 281.09 740.64 287.17 748.79 293.77 752.23 C 300.37 755.67 309.31 759.28 315.92 763.08 C 322.53 766.88 332.85 768.43 336.00 774.00
C 338.59 773.60 343.80 771.94 343.00 776.00
C 347.42 774.69 351.49 776.89 354.33 778.67 C 357.17 780.45 367.24 777.43 363.00 782.00
C 376.02 784.53 390.20 785.29 403.00 786.00
C 400.82 789.11 405.13 788.18 399.00 790.00
C 422.67 795.75 450.90 791.08 474.00 790.00
C 475.30 784.22 475.94 786.78 480.00 785.00
C 473.66 783.17 465.16 784.00 458.00 784.00 Z"/>
</g>
<g fill="None" fill-opacity="0.0" stroke="#282726" stroke-opacity="1.00" stroke-width="0.3"><path d="
M 794.00 737.00 
C 796.67 737.00 799.33 737.00 802.00 737.00
C 802.92 737.00 804.10 737.18 805.00 737.00
C 805.06 737.00 801.20 734.56 799.00 735.00 C 796.80 735.44 794.29 736.96 794.00 737.00 Z"/>
</g>
<g fill="None" fill-opacity="0.0" stroke="#979599" stroke-opacity="1.00" stroke-width="0.3"><path d="
M 802.00 737.00 
C 799.33 737.00 796.67 737.00 794.00 737.00
C 796.89 737.52 799.01 737.66 802.00 737.00 Z"/>
</g>
<g fill="None" fill-opacity="0.0" stroke="#322E30" stroke-opacity="1.00" stroke-width="0.3"><path d="
M 166.00 747.00 
C 167.54 748.65 169.37 750.37 171.00 752.00
C 169.50 749.19 168.49 748.61 166.00 747.00 Z"/>
</g>
<g fill="None" fill-opacity="0.0" stroke="#DAD5DC" stroke-opacity="1.00" stroke-width="0.3"><path d="
M 418.00 783.00 
C 431.33 783.00 444.67 783.00 458.00 783.00
C 460.00 783.00 462.00 783.06 464.00 783.00
C 446.88 781.99 427.92 782.00 410.00 782.00
C 412.04 782.20 415.23 783.00 418.00 783.00 Z"/>
</g>
<g fill="None" fill-opacity="0.0" stroke="#857E87" stroke-opacity="1.00" stroke-width="0.3"><path d="
M 458.00 784.00 
C 458.00 784.00 457.90 783.02 458.00 783.00
C 444.67 783.00 431.33 783.00 418.00 783.00
C 430.48 784.21 444.73 784.00 458.00 784.00 Z"/>
</g>
<g fill="None" fill-opacity="0.0" stroke="#434142" stroke-opacity="1.00" stroke-width="0.3"><path d="
M 480.00 925.00 
C 495.00 907.23 492.78 880.72 499.00 859.00
C 511.27 857.59 524.36 856.84 535.93 852.93 C 547.49 849.01 556.97 848.19 567.98 841.98 C 578.98 835.76 586.99 844.43 593.75 853.25 C 600.51 862.07 606.76 867.72 613.75 876.25 C 620.74 884.78 636.08 887.68 645.77 882.77 C 655.46 877.86 663.77 873.48 673.00 868.00
C 671.00 866.71 668.81 865.82 672.00 864.00
C 667.21 864.67 661.31 866.97 669.00 868.00
C 664.24 868.12 661.23 874.33 656.00 871.00
C 646.02 876.90 632.57 883.47 621.00 879.00
C 620.62 871.32 616.04 873.80 611.19 866.25 C 606.35 858.70 596.95 846.78 588.75 841.25 C 580.55 835.72 579.77 836.18 572.22 836.78 C 564.68 837.38 559.02 838.36 559.00 842.00
C 552.55 844.93 542.85 842.99 536.68 846.68 C 530.51 850.37 523.20 851.01 516.74 853.74 C 510.28 856.48 502.04 855.07 495.10 857.10 C 488.16 859.13 491.77 877.51 488.00 869.00
C 489.78 877.89 487.82 886.23 486.33 894.33 C 484.83 902.42 479.74 911.80 483.00 918.00
C 480.66 919.14 477.94 922.60 480.00 925.00 Z"/>
</g>
<g fill="None" fill-opacity="0.0" stroke="#41373A" stroke-opacity="1.00" stroke-width="0.3"><path d="
M 352.00 854.00 
C 352.50 853.98 353.50 853.96 354.00 854.00
C 356.60 854.26 358.98 854.11 359.00 852.00
C 356.32 849.73 351.50 851.62 348.00 851.00
C 348.47 852.45 350.91 853.69 352.00 854.00 Z"/>
</g>
<g fill="None" fill-opacity="0.0" stroke="#3A3133" stroke-opacity="1.00" stroke-width="0.3"><path d="
M 246.00 885.00 
C 247.25 885.64 251.57 885.19 253.00 885.00
C 254.18 884.84 254.25 884.31 255.00 884.00
C 256.07 878.85 242.16 883.03 246.00 885.00 Z"/>
</g>
<g fill="None" fill-opacity="0.0" stroke="#BFB7BD" stroke-opacity="1.00" stroke-width="0.3"><path d="
M 253.00 885.00 
C 251.57 885.19 247.25 885.64 246.00 885.00
C 248.64 885.51 250.18 886.15 253.00 885.00 Z"/>
</g>
<g fill="#FEFEFE" fill-opacity="1.00" stroke="None">
<path d="
M 0.00 960.00 
L 960.00 960.00
L 960.00 0.00
L 0.00 0.00
L 0.00 960.00
M 682.00 178.00 
C 683.79 181.59 691.05 187.05 694.00 190.00
C 702.16 196.98 711.16 206.93 719.25 213.75 C 727.34 220.58 733.41 237.99 745.00 237.00
C 763.30 235.44 786.09 214.92 805.22 222.78 C 824.35 230.64 831.41 249.64 840.00 267.00
C 843.90 274.89 847.72 286.15 842.69 294.69 C 837.67 303.24 833.93 307.90 825.75 313.75 C 817.58 319.61 816.06 324.73 806.75 330.75 C 797.45 336.78 801.12 345.81 804.78 355.22 C 808.43 364.64 810.17 373.03 812.78 383.22 C 815.39 393.42 818.20 401.62 818.78 413.22 C 819.36 424.83 833.02 421.89 842.67 425.33 C 852.33 428.77 863.75 427.96 873.02 430.98 C 882.30 433.99 888.00 440.50 890.33 449.67 C 892.65 458.85 892.04 473.76 892.00 484.00 C 891.96 494.24 893.85 507.36 887.25 515.25 C 880.65 523.13 876.15 528.90 864.99 528.99 C 853.83 529.08 847.20 535.49 834.98 534.98 C 822.75 534.47 817.46 542.04 817.67 553.67 C 817.88 565.30 813.10 572.02 810.22 582.22 C 807.34 592.43 806.90 600.39 802.01 610.01 C 797.12 619.63 803.14 625.14 810.75 631.25 C 818.37 637.36 822.44 642.57 829.75 648.25 C 837.06 653.93 843.05 659.79 844.98 669.02 C 846.90 678.26 842.01 689.92 837.23 697.23 C 832.45 704.54 828.12 712.64 823.75 719.75 C 819.37 726.85 813.73 735.30 805.00 737.00
C 804.10 737.18 802.92 737.00 802.00 737.00
C 799.01 737.66 796.89 737.52 794.00 737.00
C 778.99 734.31 768.44 731.64 753.98 725.02 C 739.51 718.40 732.37 729.69 723.08 740.08 C 713.79 750.48 708.75 757.58 696.77 765.77 C 684.79 773.96 679.94 785.29 686.33 798.67 C 692.72 812.05 696.16 825.93 697.00 840.00 C 697.84 854.07 682.97 862.08 673.00 868.00
C 663.77 873.48 655.46 877.86 645.77 882.77 C 636.08 887.68 620.74 884.78 613.75 876.25 C 606.76 867.72 600.51 862.07 593.75 853.25 C 586.99 844.43 578.98 835.76 567.98 841.98 C 556.97 848.19 547.49 849.01 535.93 852.93 C 524.36 856.84 511.27 857.59 499.00 859.00
C 492.78 880.72 495.00 907.23 480.00 925.00
C 470.22 932.27 458.42 933.70 446.00 933.00 C 433.58 932.30 417.84 934.65 406.77 929.23 C 395.70 923.81 394.23 913.59 391.01 902.99 C 387.78 892.40 385.58 878.29 384.00 867.00 C 382.42 855.70 363.00 857.14 354.00 854.00
C 353.50 853.96 352.50 853.98 352.00 854.00
C 338.04 854.53 325.26 847.23 311.93 842.07 C 298.59 836.92 292.12 849.51 283.25 859.25 C 274.38 868.98 266.79 879.10 255.00 884.00
C 254.25 884.31 254.18 884.84 253.00 885.00
C 250.18 886.15 248.64 885.51 246.00 885.00
C 234.13 882.71 222.97 876.66 212.31 870.70 C 201.64 864.73 193.10 859.33 186.70 848.30 C 180.29 837.28 187.90 820.66 190.98 809.98 C 194.05 799.30 204.62 784.20 195.25 775.75 C 185.88 767.30 179.68 760.68 171.00 752.00
C 169.37 750.37 167.54 748.65 166.00 747.00
C 152.00 732.00 169.33 728.61 184.00 730.00 C 198.67 731.39 216.01 729.25 231.00 730.00 C 245.99 730.75 261.40 727.36 274.00 735.00
C 314.21 759.38 361.37 782.00 410.00 782.00
C 427.92 782.00 446.88 781.99 464.00 783.00
C 501.41 781.96 544.37 768.52 576.69 751.70 C 609.02 734.87 633.51 716.93 659.75 690.75 C 685.99 664.58 700.45 637.87 717.31 604.31 C 734.16 570.74 742.30 525.60 743.00 486.00 C 743.70 446.40 736.67 398.03 721.23 363.77 C 705.78 329.51 691.34 302.08 665.75 275.25 C 640.16 248.41 617.24 228.08 585.31 211.70 C 553.37 195.31 513.23 177.00 476.00 177.00
C 458.51 177.00 440.80 176.00 423.00 176.00
C 419.01 176.00 414.99 175.85 411.00 176.00
C 384.69 177.00 357.90 185.98 333.78 193.78 C 309.65 201.57 292.25 215.00 270.00 226.00
C 267.76 227.11 266.73 227.44 264.00 228.00
C 254.31 230.01 242.50 229.17 232.00 229.00 C 221.50 228.83 209.39 230.01 199.00 229.00 C 188.61 227.99 175.13 231.88 166.00 228.00
C 165.50 228.00 164.16 228.23 164.00 228.00
C 161.56 228.07 160.41 226.03 160.00 224.00
C 157.57 211.87 173.47 204.66 179.75 196.75 C 186.04 188.84 203.63 182.31 198.69 170.31 C 193.76 158.31 191.09 146.36 186.67 134.33 C 182.26 122.29 184.06 107.36 194.70 99.70 C 205.33 92.03 213.08 87.53 224.23 81.23 C 235.38 74.93 248.45 69.47 260.00 77.00
C 274.10 86.19 282.56 103.33 297.00 112.00
C 308.23 118.74 319.44 113.75 331.02 110.02 C 342.61 106.30 353.97 103.83 366.07 101.07 C 378.17 98.31 384.84 89.29 386.33 77.33 C 387.82 65.36 390.46 53.20 394.92 41.92 C 399.39 30.65 410.84 25.11 423.00 26.00 C 435.16 26.89 454.01 25.04 466.00 27.00 C 477.99 28.95 485.36 36.56 488.93 48.07 C 492.49 59.59 493.52 72.29 496.78 84.22 C 500.04 96.16 510.79 101.10 522.00 103.00 C 533.21 104.90 546.08 108.07 557.02 111.98 C 567.96 115.88 580.32 116.69 589.08 108.08 C 597.85 99.47 603.02 94.04 610.25 85.25 C 617.48 76.46 630.10 70.54 641.01 73.99 C 651.91 77.44 660.01 83.13 670.08 88.92 C 680.14 94.72 687.77 98.90 693.98 109.02 C 700.18 119.15 693.81 134.77 691.67 144.67 C 689.54 154.57 678.21 168.69 682.00 178.00
M 320.00 666.00 
C 319.51 666.08 318.50 666.00 318.00 666.00
C 309.71 669.52 300.37 671.00 289.98 668.02 C 279.58 665.05 270.44 666.85 260.97 663.02 C 251.51 659.19 242.19 655.85 231.99 653.01 C 221.79 650.17 214.36 648.66 204.78 644.22 C 195.19 639.79 190.18 630.45 192.00 619.00 C 193.82 607.55 193.83 594.75 194.98 582.98 C 196.13 571.21 196.20 558.92 197.00 547.00 C 197.80 535.08 197.77 522.02 198.00 510.00 C 198.23 497.98 195.49 486.67 193.22 475.78 C 190.96 464.88 189.59 456.00 184.25 446.75 C 178.90 437.50 179.23 426.21 175.22 416.78 C 171.22 407.35 169.41 397.58 165.68 388.32 C 161.94 379.07 160.86 367.51 160.78 358.78 C 160.70 350.05 163.98 337.11 174.08 335.08 C 184.17 333.04 192.30 342.65 196.97 350.03 C 201.65 357.40 209.02 363.81 215.25 369.75 C 221.49 375.68 228.21 383.07 235.25 388.75 C 242.29 394.44 250.29 398.17 258.08 403.92 C 265.87 409.66 274.47 413.19 283.23 417.77 C 291.99 422.35 300.27 424.36 309.69 429.31 C 319.12 434.25 332.82 432.21 344.00 433.00 C 355.18 433.79 370.37 434.90 382.00 434.00 C 393.63 433.10 408.23 436.10 419.00 433.00 C 429.77 429.90 439.92 428.87 450.22 427.78 C 460.52 426.69 470.79 422.75 480.25 420.80 C 489.70 418.86 499.50 414.09 508.68 411.68 C 517.85 409.27 524.49 402.26 532.23 398.23 C 539.98 394.21 547.39 387.72 554.25 382.25 C 561.10 376.77 567.35 370.89 574.25 364.25 C 581.15 357.61 587.53 351.72 594.25 345.25 C 600.96 338.77 607.09 332.40 613.30 326.30 C 619.50 320.20 625.65 311.57 633.75 308.75 C 641.84 305.92 657.39 299.58 664.74 307.26 C 672.10 314.93 664.35 329.72 661.03 337.03 C 657.72 344.35 649.39 355.11 650.00 363.00
C 640.78 372.84 638.00 384.07 629.23 393.23 C 620.46 402.39 610.17 412.51 604.25 422.25 C 598.32 431.99 591.37 443.30 583.23 454.23 C 575.09 465.16 570.84 478.53 565.07 492.07 C 559.30 505.61 558.23 523.38 557.00 539.00 C 555.77 554.62 555.17 573.14 557.98 588.03 C 560.79 602.92 560.05 617.71 557.00 633.00
C 546.79 647.05 532.52 652.31 515.98 658.98 C 499.43 665.64 481.28 670.27 463.00 671.00
C 464.98 667.17 461.51 668.22 459.00 669.00
C 459.67 673.26 450.03 672.96 442.98 673.98 C 435.92 674.99 425.66 671.18 419.32 667.68 C 412.98 664.17 412.28 653.66 411.02 645.98 C 409.77 638.29 410.10 629.95 409.07 621.93 C 408.05 613.90 406.97 602.61 406.22 594.78 C 405.47 586.95 403.55 578.95 402.02 570.98 C 400.50 563.00 397.79 554.70 395.67 547.33 C 393.55 539.96 391.69 535.32 384.78 531.22 C 377.86 527.13 369.11 533.62 363.92 537.92 C 358.73 542.22 351.28 546.17 349.69 553.69 C 348.11 561.22 345.43 565.58 343.03 573.03 C 340.63 580.48 338.14 588.15 336.01 596.01 C 333.87 603.87 334.80 614.15 334.02 622.03 C 333.24 629.90 332.54 639.05 330.07 646.07 C 327.61 653.10 327.92 662.87 320.00 666.00
M 480.00 396.00 
C 473.68 397.32 467.97 399.46 462.75 400.76 C 457.53 402.05 443.84 404.46 443.00 399.00
C 427.46 401.35 417.95 385.52 411.23 371.77 C 404.51 358.03 410.58 339.78 421.75 327.75 C 432.92 315.73 451.86 312.31 468.01 316.99 C 484.16 321.67 492.12 336.30 496.31 351.69 C 500.50 367.09 489.31 384.67 480.00 396.00
M 316.00 317.00 
C 346.77 321.40 360.87 363.91 341.70 386.70 C 322.52 409.48 281.19 403.09 270.08 374.92 C 258.96 346.76 282.56 312.22 316.00 317.00 Z"/>
</g>
<g fill="#515151" fill-opacity="1.00" stroke="None">
<path d="
M 297.00 112.00 
C 297.19 112.96 296.85 114.03 297.00 115.00
C 291.51 115.92 284.43 110.40 281.25 105.75 C 278.07 101.11 271.59 96.36 268.25 91.75 C 264.90 87.15 257.50 81.10 260.00 77.00
C 248.45 69.47 235.38 74.93 224.23 81.23 C 213.08 87.53 205.33 92.03 194.70 99.70 C 184.06 107.36 182.26 122.29 186.67 134.33 C 191.09 146.36 193.76 158.31 198.69 170.31 C 203.63 182.31 186.04 188.84 179.75 196.75 C 173.47 204.66 157.57 211.87 160.00 224.00
C 160.52 225.67 162.38 226.61 164.00 227.00
C 181.28 225.44 199.85 228.22 217.00 226.00 C 234.15 223.78 254.19 231.07 270.00 226.00
C 292.25 215.00 309.65 201.57 333.78 193.78 C 357.90 185.98 384.69 177.00 411.00 176.00
C 415.14 175.20 419.10 174.00 424.00 174.00
C 441.79 174.00 459.50 174.32 476.00 177.00
C 513.23 177.00 553.37 195.31 585.31 211.70 C 617.24 228.08 640.16 248.41 665.75 275.25 C 691.34 302.08 705.78 329.51 721.23 363.77 C 736.67 398.03 743.70 446.40 743.00 486.00 C 742.30 525.60 734.16 570.74 717.31 604.31 C 700.45 637.87 685.99 664.58 659.75 690.75 C 633.51 716.93 609.02 734.87 576.69 751.70 C 544.37 768.52 501.41 781.96 464.00 783.00
C 462.00 783.06 460.00 783.00 458.00 783.00
C 457.90 783.02 458.00 784.00 458.00 784.00
C 465.16 784.00 473.66 783.17 480.00 785.00
C 475.94 786.78 475.30 784.22 474.00 790.00
C 450.90 791.08 422.67 795.75 399.00 790.00
C 405.13 788.18 400.82 789.11 403.00 786.00
C 390.20 785.29 376.02 784.53 363.00 782.00
C 367.24 777.43 357.17 780.45 354.33 778.67 C 351.49 776.89 347.42 774.69 343.00 776.00
C 343.80 771.94 338.59 773.60 336.00 774.00
C 332.85 768.43 322.53 766.88 315.92 763.08 C 309.31 759.28 300.37 755.67 293.77 752.23 C 287.17 748.79 281.09 740.64 274.00 741.00
C 273.12 738.25 274.57 736.30 274.00 735.00
C 261.40 727.36 245.99 730.75 231.00 730.00 C 216.01 729.25 198.67 731.39 184.00 730.00 C 169.33 728.61 152.00 732.00 166.00 747.00
C 168.49 748.61 169.50 749.19 171.00 752.00
C 179.68 760.68 185.88 767.30 195.25 775.75 C 204.62 784.20 194.05 799.30 190.98 809.98 C 187.90 820.66 180.29 837.28 186.70 848.30 C 193.10 859.33 201.64 864.73 212.31 870.70 C 222.97 876.66 234.13 882.71 246.00 885.00
C 242.16 883.03 256.07 878.85 255.00 884.00
C 266.79 879.10 274.38 868.98 283.25 859.25 C 292.12 849.51 298.59 836.92 311.93 842.07 C 325.26 847.23 338.04 854.53 352.00 854.00
C 350.91 853.69 348.47 852.45 348.00 851.00
C 351.50 851.62 356.32 849.73 359.00 852.00
C 358.98 854.11 356.60 854.26 354.00 854.00
C 363.00 857.14 382.42 855.70 384.00 867.00 C 385.58 878.29 387.78 892.40 391.01 902.99 C 394.23 913.59 395.70 923.81 406.77 929.23 C 417.84 934.65 433.58 932.30 446.00 933.00 C 458.42 933.70 470.22 932.27 480.00 925.00
C 477.94 922.60 480.66 919.14 483.00 918.00
C 479.74 911.80 484.83 902.42 486.33 894.33 C 487.82 886.23 489.78 877.89 488.00 869.00
C 491.77 877.51 488.16 859.13 495.10 857.10 C 502.04 855.07 510.28 856.48 516.74 853.74 C 523.20 851.01 530.51 850.37 536.68 846.68 C 542.85 842.99 552.55 844.93 559.00 842.00
C 559.02 838.36 564.68 837.38 572.22 836.78 C 579.77 836.18 580.55 835.72 588.75 841.25 C 596.95 846.78 606.35 858.70 611.19 866.25 C 616.04 873.80 620.62 871.32 621.00 879.00
C 632.57 883.47 646.02 876.90 656.00 871.00
C 661.23 874.33 664.24 868.12 669.00 868.00
C 661.31 866.97 667.21 864.67 672.00 864.00
C 668.81 865.82 671.00 866.71 673.00 868.00
C 682.97 862.08 697.84 854.07 697.00 840.00 C 696.16 825.93 692.72 812.05 686.33 798.67 C 679.94 785.29 684.79 773.96 696.77 765.77 C 708.75 757.58 713.79 750.48 723.08 740.08 C 732.37 729.69 739.51 718.40 753.98 725.02 C 768.44 731.64 778.99 734.31 794.00 737.00
C 794.29 736.96 796.80 735.44 799.00 735.00 C 801.20 734.56 805.06 737.00 805.00 737.00
C 813.73 735.30 819.37 726.85 823.75 719.75 C 828.12 712.64 832.45 704.54 837.23 697.23 C 842.01 689.92 846.90 678.26 844.98 669.02 C 843.05 659.79 837.06 653.93 829.75 648.25 C 822.44 642.57 818.37 637.36 810.75 631.25 C 803.14 625.14 797.12 619.63 802.01 610.01 C 806.90 600.39 807.34 592.43 810.22 582.22 C 813.10 572.02 817.88 565.30 817.67 553.67 C 817.46 542.04 822.75 534.47 834.98 534.98 C 847.20 535.49 853.83 529.08 864.99 528.99 C 876.15 528.90 880.65 523.13 887.25 515.25 C 893.85 507.36 891.96 494.24 892.00 484.00 C 892.04 473.76 892.65 458.85 890.33 449.67 C 888.00 440.50 882.30 433.99 873.02 430.98 C 863.75 427.96 852.33 428.77 842.67 425.33 C 833.02 421.89 819.36 424.83 818.78 413.22 C 818.20 401.62 815.39 393.42 812.78 383.22 C 810.17 373.03 808.43 364.64 804.78 355.22 C 801.12 345.81 797.45 336.78 806.75 330.75 C 816.06 324.73 817.58 319.61 825.75 313.75 C 833.93 307.90 837.67 303.24 842.69 294.69 C 847.72 286.15 843.90 274.89 840.00 267.00
C 837.86 266.48 837.19 269.57 835.00 269.00
C 833.48 262.80 830.87 256.59 826.81 252.75 C 822.74 248.91 821.47 241.02 818.65 237.30 C 815.83 233.58 810.03 230.99 804.78 229.22 C 799.52 227.45 791.52 228.20 787.23 229.57 C 782.94 230.94 780.04 229.54 774.00 229.00 C 767.96 228.47 766.28 237.51 760.32 237.32 C 754.37 237.13 747.42 240.02 745.00 237.00
C 733.41 237.99 727.34 220.58 719.25 213.75 C 711.16 206.93 702.16 196.98 694.00 190.00
C 690.46 186.98 683.78 182.37 682.00 178.00
C 678.21 168.69 689.54 154.57 691.67 144.67 C 693.81 134.77 700.18 119.15 693.98 109.02 C 687.77 98.90 680.14 94.72 670.08 88.92 C 660.01 83.13 651.91 77.44 641.01 73.99 C 630.10 70.54 617.48 76.46 610.25 85.25 C 603.02 94.04 597.85 99.47 589.08 108.08 C 580.32 116.69 567.96 115.88 557.02 111.98 C 546.08 108.07 533.21 104.90 522.00 103.00 C 510.79 101.10 500.04 96.16 496.78 84.22 C 493.52 72.29 492.49 59.59 488.93 48.07 C 485.36 36.56 477.99 28.95 466.00 27.00 C 454.01 25.04 435.16 26.89 423.00 26.00 C 410.84 25.11 399.39 30.65 394.92 41.92 C 390.46 53.20 387.82 65.36 386.33 77.33 C 384.84 89.29 378.17 98.31 366.07 101.07 C 353.97 103.83 342.61 106.30 331.02 110.02 C 319.44 113.75 308.23 118.74 297.00 112.00
M 479.00 173.00 
C 461.19 174.83 441.97 170.19 423.00 172.00
C 441.02 169.41 460.86 171.40 479.00 173.00
M 165.00 225.00 
C 161.50 227.91 160.94 221.41 161.00 219.00
C 161.96 220.93 163.53 223.09 165.00 225.00 Z"/>
</g>
<g fill="#4A454E" fill-opacity="1.00" stroke="None">
<path d="
M 297.00 112.00 
C 282.56 103.33 274.10 86.19 260.00 77.00
C 257.50 81.10 264.90 87.15 268.25 91.75 C 271.59 96.36 278.07 101.11 281.25 105.75 C 284.43 110.40 291.51 115.92 297.00 115.00
C 296.85 114.03 297.19 112.96 297.00 112.00 Z"/>
</g>
<g fill="#362D30" fill-opacity="1.00" stroke="None">
<path d="
M 479.00 173.00 
C 460.86 171.40 441.02 169.41 423.00 172.00
C 441.97 170.19 461.19 174.83 479.00 173.00 Z"/>
</g>
<g fill="#9D989B" fill-opacity="1.00" stroke="None">
<path d="
M 411.00 176.00 
C 414.99 175.85 419.01 176.00 423.00 176.00
C 423.41 175.81 423.74 174.12 424.00 174.00
C 419.10 174.00 415.14 175.20 411.00 176.00 Z"/>
</g>
<g fill="#C0BFC1" fill-opacity="1.00" stroke="None">
<path d="
M 423.00 176.00 
C 440.80 176.00 458.51 177.00 476.00 177.00
C 459.50 174.32 441.79 174.00 424.00 174.00
C 423.74 174.12 423.41 175.81 423.00 176.00 Z"/>
</g>
<g fill="#A29B9F" fill-opacity="1.00" stroke="None">
<path d="
M 694.00 190.00 
C 691.05 187.05 683.79 181.59 682.00 178.00
C 683.78 182.37 690.46 186.98 694.00 190.00 Z"/>
</g>
<g fill="#322F34" fill-opacity="1.00" stroke="None">
<path d="
M 165.00 225.00 
C 163.53 223.09 161.96 220.93 161.00 219.00
C 160.94 221.41 161.50 227.91 165.00 225.00 Z"/>
</g>
<g fill="#49454B" fill-opacity="1.00" stroke="None">
<path d="
M 745.00 237.00 
C 747.42 240.02 754.37 237.13 760.32 237.32 C 766.28 237.51 767.96 228.47 774.00 229.00 C 780.04 229.54 782.94 230.94 787.23 229.57 C 791.52 228.20 799.52 227.45 804.78 229.22 C 810.03 230.99 815.83 233.58 818.65 237.30 C 821.47 241.02 822.74 248.91 826.81 252.75 C 830.87 256.59 833.48 262.80 835.00 269.00
C 837.19 269.57 837.86 266.48 840.00 267.00
C 831.41 249.64 824.35 230.64 805.22 222.78 C 786.09 214.92 763.30 235.44 745.00 237.00 Z"/>
</g>
<g fill="#B6B1B6" fill-opacity="1.00" stroke="None">
<path d="
M 164.00 228.00 
C 163.77 227.66 164.00 227.00 164.00 227.00
C 162.38 226.61 160.52 225.67 160.00 224.00
C 160.41 226.03 161.56 228.07 164.00 228.00 Z"/>
</g>
<g fill="#716F6F" fill-opacity="1.00" stroke="None">
<path d="
M 164.00 227.00 
C 164.00 227.00 163.77 227.66 164.00 228.00
C 164.16 228.23 165.50 228.00 166.00 228.00
C 198.21 228.00 231.94 230.91 264.00 228.00
C 266.73 227.44 267.76 227.11 270.00 226.00
C 254.19 231.07 234.15 223.78 217.00 226.00 C 199.85 228.22 181.28 225.44 164.00 227.00 Z"/>
</g>
<g fill="#B5B3B5" fill-opacity="1.00" stroke="None">
<path d="
M 264.00 228.00 
C 231.94 230.91 198.21 228.00 166.00 228.00
C 175.13 231.88 188.61 227.99 199.00 229.00 C 209.39 230.01 221.50 228.83 232.00 229.00 C 242.50 229.17 254.31 230.01 264.00 228.00 Z"/>
</g>
<g fill="#CFFBFB" fill-opacity="1.00" stroke="None">
<path d="
M 318.00 666.00 
C 309.00 666.01 299.24 665.80 291.00 665.00
C 264.80 665.00 241.93 652.67 218.00 645.00
C 210.16 642.49 207.27 639.22 199.75 635.25 C 192.24 631.28 193.32 620.64 194.00 612.00 C 194.68 603.36 196.97 594.88 197.00 586.00 C 197.03 577.12 198.20 567.28 199.00 559.00
C 199.00 539.21 199.48 513.17 199.00 494.00 C 198.52 474.83 191.14 457.70 186.02 440.98 C 180.91 424.25 173.84 408.11 170.01 391.99 C 166.17 375.88 153.11 354.34 169.75 341.75 C 186.40 329.17 194.88 355.00 204.31 365.69 C 213.73 376.39 226.25 387.02 238.08 396.92 C 249.91 406.82 264.99 414.29 279.68 421.32 C 294.36 428.35 313.52 436.00 331.00 436.00
C 336.33 436.00 341.67 436.00 347.00 436.00
C 368.68 436.00 391.84 435.30 413.02 435.02 C 434.20 434.75 451.63 427.97 472.00 426.00
C 482.04 425.03 493.63 421.78 502.67 417.67 C 511.72 413.57 520.33 408.76 529.08 404.08 C 537.84 399.40 544.64 392.70 552.68 387.68 C 560.72 382.66 565.36 373.54 572.75 367.75 C 580.14 361.96 587.15 355.88 593.75 348.75 C 600.35 341.62 607.27 336.11 613.75 328.75 C 620.24 321.39 627.55 317.01 635.23 311.23 C 642.91 305.45 661.64 301.38 662.00 314.00 C 662.36 326.62 655.55 333.30 651.23 343.23 C 646.91 353.16 641.86 360.00 636.68 368.68 C 631.50 377.36 625.03 383.51 619.75 391.75 C 614.47 399.99 609.16 407.33 603.08 415.08 C 597.00 422.84 593.29 430.11 586.75 437.75 C 580.22 445.39 575.67 452.94 571.08 462.08 C 566.48 471.21 562.37 479.54 558.69 489.69 C 555.02 499.85 552.43 510.44 551.00 522.00 C 549.57 533.57 549.94 548.62 550.00 561.00 C 550.06 573.38 552.00 586.52 552.00 599.00
C 552.91 608.41 556.60 621.14 551.23 630.23 C 545.86 639.32 538.58 641.08 530.00 645.00
C 518.83 652.28 506.83 654.69 493.98 657.98 C 481.13 661.26 466.56 665.92 453.00 667.00
C 444.82 668.58 426.30 670.81 419.00 666.00
C 418.30 665.54 416.76 666.37 416.00 666.00
C 417.07 651.14 413.19 637.55 413.00 623.00
C 412.32 618.24 410.21 613.46 410.00 608.00
C 409.43 593.18 407.11 576.00 404.00 562.00 C 400.89 548.00 395.81 536.81 388.08 524.92 C 380.35 513.02 366.15 526.87 358.25 535.25 C 350.35 543.62 341.69 556.10 338.22 568.22 C 334.76 580.34 330.54 599.76 330.00 613.00
C 329.84 616.98 328.66 619.81 328.00 623.00
C 327.48 635.77 324.42 647.70 322.00 660.00
C 321.66 661.74 322.07 664.98 320.00 666.00
C 327.92 662.87 327.61 653.10 330.07 646.07 C 332.54 639.05 333.24 629.90 334.02 622.03 C 334.80 614.15 333.87 603.87 336.01 596.01 C 338.14 588.15 340.63 580.48 343.03 573.03 C 345.43 565.58 348.11 561.22 349.69 553.69 C 351.28 546.17 358.73 542.22 363.92 537.92 C 369.11 533.62 377.86 527.13 384.78 531.22 C 391.69 535.32 393.55 539.96 395.67 547.33 C 397.79 554.70 400.50 563.00 402.02 570.98 C 403.55 578.95 405.47 586.95 406.22 594.78 C 406.97 602.61 408.05 613.90 409.07 621.93 C 410.10 629.95 409.77 638.29 411.02 645.98 C 412.28 653.66 412.98 664.17 419.32 667.68 C 425.66 671.18 435.92 674.99 442.98 673.98 C 450.03 672.96 459.67 673.26 459.00 669.00
C 461.51 668.22 464.98 667.17 463.00 671.00
C 481.28 670.27 499.43 665.64 515.98 658.98 C 532.52 652.31 546.79 647.05 557.00 633.00
C 560.05 617.71 560.79 602.92 557.98 588.03 C 555.17 573.14 555.77 554.62 557.00 539.00 C 558.23 523.38 559.30 505.61 565.07 492.07 C 570.84 478.53 575.09 465.16 583.23 454.23 C 591.37 443.30 598.32 431.99 604.25 422.25 C 610.17 412.51 620.46 402.39 629.23 393.23 C 638.00 384.07 640.78 372.84 650.00 363.00
C 649.39 355.11 657.72 344.35 661.03 337.03 C 664.35 329.72 672.10 314.93 664.74 307.26 C 657.39 299.58 641.84 305.92 633.75 308.75 C 625.65 311.57 619.50 320.20 613.30 326.30 C 607.09 332.40 600.96 338.77 594.25 345.25 C 587.53 351.72 581.15 357.61 574.25 364.25 C 567.35 370.89 561.10 376.77 554.25 382.25 C 547.39 387.72 539.98 394.21 532.23 398.23 C 524.49 402.26 517.85 409.27 508.68 411.68 C 499.50 414.09 489.70 418.86 480.25 420.80 C 470.79 422.75 460.52 426.69 450.22 427.78 C 439.92 428.87 429.77 429.90 419.00 433.00 C 408.23 436.10 393.63 433.10 382.00 434.00 C 370.37 434.90 355.18 433.79 344.00 433.00 C 332.82 432.21 319.12 434.25 309.69 429.31 C 300.27 424.36 291.99 422.35 283.23 417.77 C 274.47 413.19 265.87 409.66 258.08 403.92 C 250.29 398.17 242.29 394.44 235.25 388.75 C 228.21 383.07 221.49 375.68 215.25 369.75 C 209.02 363.81 201.65 357.40 196.97 350.03 C 192.30 342.65 184.17 333.04 174.08 335.08 C 163.98 337.11 160.70 350.05 160.78 358.78 C 160.86 367.51 161.94 379.07 165.68 388.32 C 169.41 397.58 171.22 407.35 175.22 416.78 C 179.23 426.21 178.90 437.50 184.25 446.75 C 189.59 456.00 190.96 464.88 193.22 475.78 C 195.49 486.67 198.23 497.98 198.00 510.00 C 197.77 522.02 197.80 535.08 197.00 547.00 C 196.20 558.92 196.13 571.21 194.98 582.98 C 193.83 594.75 193.82 607.55 192.00 619.00 C 190.18 630.45 195.19 639.79 204.78 644.22 C 214.36 648.66 221.79 650.17 231.99 653.01 C 242.19 655.85 251.51 659.19 260.97 663.02 C 270.44 666.85 279.58 665.05 289.98 668.02 C 300.37 671.00 309.71 669.52 318.00 666.00 Z"/>
</g>
<g fill="#30ADC5" fill-opacity="1.00" stroke="None">
<path d="
M 472.00 426.00 
C 455.31 430.66 438.42 436.00 420.00 436.00
C 399.37 439.98 373.49 441.26 349.00 440.00
C 356.93 437.74 350.46 438.57 345.78 437.22 C 341.10 435.87 334.89 438.60 331.00 436.00
C 313.52 436.00 294.36 428.35 279.68 421.32 C 264.99 414.29 249.91 406.82 238.08 396.92 C 226.25 387.02 213.73 376.39 204.31 365.69 C 194.88 355.00 186.40 329.17 169.75 341.75 C 153.11 354.34 166.17 375.88 170.01 391.99 C 173.84 408.11 180.91 424.25 186.02 440.98 C 191.14 457.70 198.52 474.83 199.00 494.00 C 199.48 513.17 199.00 539.21 199.00 559.00
C 199.00 577.27 199.86 592.65 198.00 611.00 C 196.14 629.35 201.90 637.81 218.00 645.00
C 241.93 652.67 264.80 665.00 291.00 665.00
C 300.67 665.00 310.33 665.00 320.00 665.00
C 319.88 663.17 319.74 660.54 322.00 660.00
C 324.42 647.70 327.48 635.77 328.00 623.00
C 328.16 619.01 329.34 616.19 330.00 613.00
C 330.54 599.76 334.76 580.34 338.22 568.22 C 341.69 556.10 350.35 543.62 358.25 535.25 C 366.15 526.87 380.35 513.02 388.08 524.92 C 395.81 536.81 400.89 548.00 404.00 562.00 C 407.11 576.00 409.43 593.18 410.00 608.00
C 410.21 609.22 410.89 613.31 413.00 613.00
C 413.72 598.12 416.11 585.03 413.22 567.78 C 410.34 550.53 402.42 544.11 396.75 529.81 C 391.07 515.51 372.38 510.58 361.71 522.71 C 351.03 534.83 341.41 537.93 338.00 555.00
C 334.26 553.07 334.35 564.29 332.22 569.22 C 330.10 574.15 330.73 577.54 330.02 583.03 C 329.31 588.51 326.74 596.75 326.07 603.07 C 325.41 609.40 320.36 615.50 321.07 622.07 C 321.79 628.65 321.18 636.35 320.00 643.00 C 318.82 649.66 316.84 654.29 316.00 660.00
C 289.47 663.96 263.03 650.68 237.00 649.00
C 238.31 646.89 230.21 642.95 226.87 641.08 C 223.53 639.21 213.43 636.90 210.00 637.00
C 208.29 633.92 207.09 629.66 203.00 628.00
C 204.82 620.49 203.70 610.75 204.00 603.00 C 204.30 595.25 202.30 586.54 203.00 579.00 C 203.70 571.46 198.86 562.99 204.00 561.00
C 204.50 547.38 203.48 532.57 204.00 519.00 C 204.52 505.43 202.99 489.42 202.02 475.98 C 201.06 462.53 196.21 452.95 192.23 440.77 C 188.24 428.59 185.63 418.91 181.07 406.93 C 176.51 394.95 174.87 382.61 170.08 370.92 C 165.29 359.23 174.61 345.04 187.00 351.00
C 190.07 357.78 195.69 364.30 202.00 368.00
C 202.42 373.53 207.97 379.76 212.75 382.59 C 217.53 385.41 222.84 389.83 227.30 393.70 C 231.76 397.58 237.04 402.02 240.75 405.59 C 244.46 409.15 251.78 411.80 256.08 415.92 C 260.37 420.05 265.34 421.00 270.01 423.99 C 274.68 426.98 279.59 427.65 285.10 431.90 C 290.61 436.16 296.81 437.12 303.23 439.77 C 309.65 442.42 317.25 444.75 325.22 444.78 C 333.19 444.80 341.86 446.61 350.00 446.00 C 358.14 445.39 369.20 446.77 377.00 446.00 C 384.80 445.23 395.36 447.72 402.00 447.00 C 408.64 446.28 422.67 444.50 416.00 442.00
C 423.69 441.77 432.35 440.98 439.67 439.67 C 446.99 438.37 457.43 439.28 464.07 437.07 C 470.72 434.87 478.56 433.97 483.75 430.75 C 488.93 427.52 498.02 425.84 503.23 423.23 C 508.43 420.62 516.41 418.74 514.00 413.00
C 517.00 413.10 520.43 412.17 522.00 415.00
C 525.31 410.25 535.96 407.95 540.70 402.70 C 545.43 397.45 551.41 393.23 558.00 392.00
C 558.37 388.23 564.75 380.63 570.00 382.00
C 567.94 376.90 574.90 376.81 574.97 372.97 C 575.03 369.13 582.78 368.14 579.00 366.00
C 584.39 367.29 583.59 361.38 588.00 363.00
C 586.73 358.85 590.39 357.10 593.75 353.75 C 597.12 350.41 601.69 347.12 606.00 348.00
C 613.66 335.66 623.53 326.44 632.75 317.75 C 641.97 309.07 643.52 313.43 653.00 312.00
C 657.33 331.01 641.40 345.77 634.23 359.57 C 627.06 373.37 612.08 386.01 608.00 402.00
C 601.17 402.13 598.38 407.71 594.25 413.25 C 590.11 418.79 588.98 425.93 583.70 430.70 C 578.41 435.47 577.79 440.89 572.70 445.70 C 567.60 450.50 563.97 456.24 561.90 462.90 C 559.83 469.56 557.84 478.44 553.00 482.00
C 550.68 490.52 549.09 500.63 547.22 511.22 C 545.35 521.81 542.78 533.02 543.80 544.25 C 544.82 555.47 543.23 569.06 544.33 579.67 C 545.43 590.29 545.85 604.02 546.33 614.67 C 546.81 625.32 539.31 631.33 531.08 636.08 C 522.86 640.84 516.95 644.67 508.75 647.76 C 500.55 650.84 490.85 651.72 481.93 655.93 C 473.00 660.14 461.46 660.41 453.10 660.88 C 444.74 661.36 437.09 658.71 429.00 659.00
C 419.75 646.64 423.21 629.04 420.00 615.00
C 416.38 614.65 414.60 611.08 416.00 608.00
C 412.36 610.42 413.51 618.20 413.00 623.00
C 413.19 637.55 417.07 651.14 416.00 666.00
C 416.76 666.37 418.30 665.54 419.00 666.00
C 426.91 669.70 444.13 667.70 453.00 667.00
C 466.56 665.92 481.13 661.26 493.98 657.98 C 506.83 654.69 518.83 652.28 530.00 645.00
C 537.63 640.03 543.77 638.12 548.77 629.77 C 553.77 621.42 552.00 609.12 552.00 599.00
C 552.00 586.52 550.06 573.38 550.00 561.00 C 549.94 548.62 549.57 533.57 551.00 522.00 C 552.43 510.44 555.02 499.85 558.69 489.69 C 562.37 479.54 566.48 471.21 571.08 462.08 C 575.67 452.94 580.22 445.39 586.75 437.75 C 593.29 430.11 597.00 422.84 603.08 415.08 C 609.16 407.33 614.47 399.99 619.75 391.75 C 625.03 383.51 631.50 377.36 636.68 368.68 C 641.86 360.00 646.91 353.16 651.23 343.23 C 655.55 333.30 662.36 326.62 662.00 314.00 C 661.64 301.38 642.91 305.45 635.23 311.23 C 627.55 317.01 620.24 321.39 613.75 328.75 C 607.27 336.11 600.35 341.62 593.75 348.75 C 587.15 355.88 580.14 361.96 572.75 367.75 C 565.36 373.54 560.72 382.66 552.68 387.68 C 544.64 392.70 537.84 399.40 529.08 404.08 C 520.33 408.76 511.72 413.57 502.67 417.67 C 493.63 421.78 482.04 425.03 472.00 426.00
M 178.00 340.00 
C 173.25 340.94 170.94 348.99 166.00 347.00
C 168.98 343.65 173.00 337.09 178.00 340.00 Z"/>
</g>
<g fill="#0CC0DF" fill-opacity="1.00" stroke="None">
<path d="
M 410.00 608.00 
C 410.21 613.46 412.32 618.24 413.00 623.00
C 413.51 618.20 412.36 610.42 416.00 608.00
C 414.60 611.08 416.38 614.65 420.00 615.00
C 423.21 629.04 419.75 646.64 429.00 659.00
C 437.09 658.71 444.74 661.36 453.10 660.88 C 461.46 660.41 473.00 660.14 481.93 655.93 C 490.85 651.72 500.55 650.84 508.75 647.76 C 516.95 644.67 522.86 640.84 531.08 636.08 C 539.31 631.33 546.81 625.32 546.33 614.67 C 545.85 604.02 545.43 590.29 544.33 579.67 C 543.23 569.06 544.82 555.47 543.80 544.25 C 542.78 533.02 545.35 521.81 547.22 511.22 C 549.09 500.63 550.68 490.52 553.00 482.00
C 557.84 478.44 559.83 469.56 561.90 462.90 C 563.97 456.24 567.60 450.50 572.70 445.70 C 577.79 440.89 578.41 435.47 583.70 430.70 C 588.98 425.93 590.11 418.79 594.25 413.25 C 598.38 407.71 601.17 402.13 608.00 402.00
C 612.08 386.01 627.06 373.37 634.23 359.57 C 641.40 345.77 657.33 331.01 653.00 312.00
C 643.52 313.43 641.97 309.07 632.75 317.75 C 623.53 326.44 613.66 335.66 606.00 348.00
C 601.69 347.12 597.12 350.41 593.75 353.75 C 590.39 357.10 586.73 358.85 588.00 363.00
C 583.59 361.38 584.39 367.29 579.00 366.00
C 582.78 368.14 575.03 369.13 574.97 372.97 C 574.90 376.81 567.94 376.90 570.00 382.00
C 564.75 380.63 558.37 388.23 558.00 392.00
C 551.41 393.23 545.43 397.45 540.70 402.70 C 535.96 407.95 525.31 410.25 522.00 415.00
C 520.43 412.17 517.00 413.10 514.00 413.00
C 516.41 418.74 508.43 420.62 503.23 423.23 C 498.02 425.84 488.93 427.52 483.75 430.75 C 478.56 433.97 470.72 434.87 464.07 437.07 C 457.43 439.28 446.99 438.37 439.67 439.67 C 432.35 440.98 423.69 441.77 416.00 442.00
C 422.67 444.50 408.64 446.28 402.00 447.00 C 395.36 447.72 384.80 445.23 377.00 446.00 C 369.20 446.77 358.14 445.39 350.00 446.00 C 341.86 446.61 333.19 444.80 325.22 444.78 C 317.25 444.75 309.65 442.42 303.23 439.77 C 296.81 437.12 290.61 436.16 285.10 431.90 C 279.59 427.65 274.68 426.98 270.01 423.99 C 265.34 421.00 260.37 420.05 256.08 415.92 C 251.78 411.80 244.46 409.15 240.75 405.59 C 237.04 402.02 231.76 397.58 227.30 393.70 C 222.84 389.83 217.53 385.41 212.75 382.59 C 207.97 379.76 202.42 373.53 202.00 368.00
C 195.69 364.30 190.07 357.78 187.00 351.00
C 174.61 345.04 165.29 359.23 170.08 370.92 C 174.87 382.61 176.51 394.95 181.07 406.93 C 185.63 418.91 188.24 428.59 192.23 440.77 C 196.21 452.95 201.06 462.53 202.02 475.98 C 202.99 489.42 204.52 505.43 204.00 519.00 C 203.48 532.57 204.50 547.38 204.00 561.00
C 198.86 562.99 203.70 571.46 203.00 579.00 C 202.30 586.54 204.30 595.25 204.00 603.00 C 203.70 610.75 204.82 620.49 203.00 628.00
C 207.09 629.66 208.29 633.92 210.00 637.00
C 213.43 636.90 223.53 639.21 226.87 641.08 C 230.21 642.95 238.31 646.89 237.00 649.00
C 263.03 650.68 289.47 663.96 316.00 660.00
C 316.84 654.29 318.82 649.66 320.00 643.00 C 321.18 636.35 321.79 628.65 321.07 622.07 C 320.36 615.50 325.41 609.40 326.07 603.07 C 326.74 596.75 329.31 588.51 330.02 583.03 C 330.73 577.54 330.10 574.15 332.22 569.22 C 334.35 564.29 334.26 553.07 338.00 555.00
C 341.41 537.93 351.03 534.83 361.71 522.71 C 372.38 510.58 391.07 515.51 396.75 529.81 C 402.42 544.11 410.34 550.53 413.22 567.78 C 416.11 585.03 413.72 598.12 413.00 613.00
C 410.89 613.31 410.21 609.22 410.00 608.00 Z"/>
</g>
<g fill="#E1FEFD" fill-opacity="1.00" stroke="None">
<path d="
M 480.00 396.00 
C 489.31 384.67 500.50 367.09 496.31 351.69 C 492.12 336.30 484.16 321.67 468.01 316.99 C 451.86 312.31 432.92 315.73 421.75 327.75 C 410.58 339.78 404.51 358.03 411.23 371.77 C 417.95 385.52 427.46 401.35 443.00 399.00
C 443.84 404.46 457.53 402.05 462.75 400.76 C 467.97 399.46 473.68 397.32 480.00 396.00
M 488.00 339.00 
C 488.17 339.95 487.76 341.06 488.00 342.00
C 488.46 343.82 489.56 344.98 490.00 347.00
C 491.17 349.87 491.50 351.51 492.00 355.00
C 493.16 363.11 491.07 372.77 486.70 379.69 C 482.32 386.62 477.53 393.09 469.92 394.92 C 462.32 396.76 447.37 400.72 441.00 396.00
C 440.50 396.00 440.00 396.00 440.00 396.00
C 430.07 393.67 422.99 385.92 418.08 377.92 C 413.17 369.92 407.32 356.17 411.78 347.78 C 416.24 339.39 418.69 326.01 429.00 324.00
C 429.48 323.91 430.00 324.00 430.00 324.00
C 432.13 322.66 434.64 321.76 437.00 321.00
C 452.14 313.09 484.17 317.97 488.00 339.00 Z"/>
</g>
<g fill="#C0F7F8" fill-opacity="1.00" stroke="None">
<path d="
M 316.00 317.00 
C 282.56 312.22 258.96 346.76 270.08 374.92 C 281.19 403.09 322.52 409.48 341.70 386.70 C 360.87 363.91 346.77 321.40 316.00 317.00
M 346.00 371.00 
C 342.81 385.17 329.52 394.30 316.00 397.00
C 288.63 402.47 263.30 376.03 270.00 349.00
C 275.09 328.45 297.64 313.85 319.07 319.93 C 340.51 326.00 350.78 349.79 346.00 371.00 Z"/>
</g>
<g fill="#AFEDF3" fill-opacity="1.00" stroke="None">
<path d="
M 437.00 321.00 
C 448.07 317.45 458.29 317.38 469.00 322.00
C 475.04 324.61 486.07 332.36 488.00 339.00
C 484.17 317.97 452.14 313.09 437.00 321.00 Z"/>
</g>
<g fill="#2F9EB8" fill-opacity="1.00" stroke="None">
<path d="
M 437.00 321.00 
C 434.64 321.76 432.13 322.66 430.00 324.00
C 427.98 328.84 421.00 330.65 421.00 336.00
C 428.48 325.14 444.96 321.33 457.00 322.00 C 469.04 322.67 473.81 335.89 484.00 339.00
C 485.87 349.08 486.10 360.71 487.00 372.00
C 488.53 371.26 487.67 368.23 490.00 368.00
C 490.68 365.37 490.85 362.82 491.00 360.00
C 491.23 355.72 490.90 351.09 490.00 347.00
C 489.56 344.98 488.46 343.82 488.00 342.00
C 483.86 336.51 475.55 325.89 469.00 322.00
C 458.29 317.38 448.07 317.45 437.00 321.00 Z"/>
</g>
<g fill="#29A9C4" fill-opacity="1.00" stroke="None">
<path d="
M 270.00 349.00 
C 266.92 373.81 287.61 403.76 315.00 396.00
C 300.51 392.22 290.45 389.60 284.07 377.93 C 277.69 366.25 275.77 349.74 286.25 339.25 C 296.74 328.77 306.39 321.71 322.00 326.00
C 326.48 330.89 331.06 334.74 335.92 341.08 C 340.78 347.42 339.62 355.26 339.01 363.01 C 338.40 370.76 335.35 378.17 329.75 382.75 C 324.15 387.32 318.91 389.25 312.00 393.00
C 320.21 395.26 329.57 388.96 337.00 384.00
C 339.79 380.29 344.07 375.00 346.00 371.00
C 350.78 349.79 340.51 326.00 319.07 319.93 C 297.64 313.85 275.09 328.45 270.00 349.00 Z"/>
</g>
<g fill="#1CB9D7" fill-opacity="1.00" stroke="None">
<path d="
M 430.00 324.00 
C 430.00 324.00 429.48 323.91 429.00 324.00
C 420.04 336.83 407.80 346.72 412.93 364.07 C 418.05 381.43 427.54 385.99 440.00 396.00
C 440.00 396.00 440.50 396.00 441.00 396.00
C 463.27 396.00 483.68 392.36 490.00 368.00
C 487.67 368.23 488.53 371.26 487.00 372.00
C 486.10 360.71 485.87 349.08 484.00 339.00
C 473.81 335.89 469.04 322.67 457.00 322.00 C 444.96 321.33 428.48 325.14 421.00 336.00
C 421.00 330.65 427.98 328.84 430.00 324.00 Z"/>
</g>
<g fill="#5AB6C8" fill-opacity="1.00" stroke="None">
<path d="
M 488.00 342.00 
C 487.76 341.06 488.17 339.95 488.00 339.00
C 486.07 332.36 475.04 324.61 469.00 322.00
C 475.55 325.89 483.86 336.51 488.00 342.00 Z"/>
</g>
<g fill="#17BEDA" fill-opacity="1.00" stroke="None">
<path d="
M 270.00 349.00 
C 263.30 376.03 288.63 402.47 316.00 397.00
C 323.29 394.63 332.08 390.55 337.00 384.00
C 329.57 388.96 320.21 395.26 312.00 393.00
C 318.91 389.25 324.15 387.32 329.75 382.75 C 335.35 378.17 338.40 370.76 339.01 363.01 C 339.62 355.26 340.78 347.42 335.92 341.08 C 331.06 334.74 326.48 330.89 322.00 326.00
C 306.39 321.71 296.74 328.77 286.25 339.25 C 275.77 349.74 277.69 366.25 284.07 377.93 C 290.45 389.60 300.51 392.22 315.00 396.00
C 287.61 403.76 266.92 373.81 270.00 349.00 Z"/>
</g>
<g fill="#A9EFF4" fill-opacity="1.00" stroke="None">
<path d="
M 440.00 396.00 
C 427.54 385.99 418.05 381.43 412.93 364.07 C 407.80 346.72 420.04 336.83 429.00 324.00
C 418.69 326.01 416.24 339.39 411.78 347.78 C 407.32 356.17 413.17 369.92 418.08 377.92 C 422.99 385.92 430.07 393.67 440.00 396.00 Z"/>
</g>
<g fill="#29949B" fill-opacity="1.00" stroke="None">
<path d="
M 178.00 340.00 
C 173.00 337.09 168.98 343.65 166.00 347.00
C 170.94 348.99 173.25 340.94 178.00 340.00 Z"/>
</g>
<g fill="#74C0D3" fill-opacity="1.00" stroke="None">
<path d="
M 491.00 360.00 
C 491.27 358.63 491.98 356.97 492.00 355.00
C 491.50 351.51 491.17 349.87 490.00 347.00
C 490.90 351.09 491.23 355.72 491.00 360.00 Z"/>
</g>
<g fill="#AAEFF0" fill-opacity="1.00" stroke="None">
<path d="
M 491.00 360.00 
C 490.85 362.82 490.68 365.37 490.00 368.00
C 483.68 392.36 463.27 396.00 441.00 396.00
C 447.37 400.72 462.32 396.76 469.92 394.92 C 477.53 393.09 482.32 386.62 486.70 379.69 C 491.07 372.77 493.16 363.11 492.00 355.00
C 491.98 356.97 491.27 358.63 491.00 360.00 Z"/>
</g>
<g fill="#72CFD2" fill-opacity="1.00" stroke="None">
<path d="
M 337.00 384.00 
C 332.08 390.55 323.29 394.63 316.00 397.00
C 329.52 394.30 342.81 385.17 346.00 371.00
C 344.07 375.00 339.79 380.29 337.00 384.00 Z"/>
</g>
<g fill="#9AE7EF" fill-opacity="1.00" stroke="None">
<path d="
M 347.00 436.00 
C 370.83 438.31 395.95 436.00 420.00 436.00
C 438.42 436.00 455.31 430.66 472.00 426.00
C 451.63 427.97 434.20 434.75 413.02 435.02 C 391.84 435.30 368.68 436.00 347.00 436.00 Z"/>
</g>
<g fill="#69CCE0" fill-opacity="1.00" stroke="None">
<path d="
M 420.00 436.00 
C 395.95 436.00 370.83 438.31 347.00 436.00
C 341.67 436.00 336.33 436.00 331.00 436.00
C 334.89 438.60 341.10 435.87 345.78 437.22 C 350.46 438.57 356.93 437.74 349.00 440.00
C 373.49 441.26 399.37 439.98 420.00 436.00 Z"/>
</g>
<g fill="#70D0E0" fill-opacity="1.00" stroke="None">
<path d="
M 218.00 645.00 
C 201.90 637.81 196.14 629.35 198.00 611.00 C 199.86 592.65 199.00 577.27 199.00 559.00
C 198.20 567.28 197.03 577.12 197.00 586.00 C 196.97 594.88 194.68 603.36 194.00 612.00 C 193.32 620.64 192.24 631.28 199.75 635.25 C 207.27 639.22 210.16 642.49 218.00 645.00 Z"/>
</g>
<g fill="#66C3C5" fill-opacity="1.00" stroke="None">
<path d="
M 530.00 645.00 
C 538.58 641.08 545.86 639.32 551.23 630.23 C 556.60 621.14 552.91 608.41 552.00 599.00
C 552.00 609.12 553.77 621.42 548.77 629.77 C 543.77 638.12 537.63 640.03 530.00 645.00 Z"/>
</g>
<g fill="#62CECF" fill-opacity="1.00" stroke="None">
<path d="
M 328.00 623.00 
C 328.66 619.81 329.84 616.98 330.00 613.00
C 329.34 616.19 328.16 619.01 328.00 623.00 Z"/>
</g>
<g fill="#8BD9DF" fill-opacity="1.00" stroke="None">
<path d="
M 291.00 665.00 
C 299.24 665.80 309.00 666.01 318.00 666.00
C 318.50 666.00 319.51 666.08 320.00 666.00
C 322.07 664.98 321.66 661.74 322.00 660.00
C 319.74 660.54 319.88 663.17 320.00 665.00
C 310.33 665.00 300.67 665.00 291.00 665.00 Z"/>
</g>
<g fill="#83C3CA" fill-opacity="1.00" stroke="None">
<path d="
M 453.00 667.00 
C 444.13 667.70 426.91 669.70 419.00 666.00
C 426.30 670.81 444.82 668.58 453.00 667.00 Z"/>
</g>
<g fill="#49454B" fill-opacity="1.00" stroke="None">
<path d="
M 458.00 784.00 
C 444.73 784.00 430.48 784.21 418.00 783.00
C 415.23 783.00 412.04 782.20 410.00 782.00
C 361.37 782.00 314.21 759.38 274.00 735.00
C 274.57 736.30 273.12 738.25 274.00 741.00
C 281.09 740.64 287.17 748.79 293.77 752.23 C 300.37 755.67 309.31 759.28 315.92 763.08 C 322.53 766.88 332.85 768.43 336.00 774.00
C 338.59 773.60 343.80 771.94 343.00 776.00
C 347.42 774.69 351.49 776.89 354.33 778.67 C 357.17 780.45 367.24 777.43 363.00 782.00
C 376.02 784.53 390.20 785.29 403.00 786.00
C 400.82 789.11 405.13 788.18 399.00 790.00
C 422.67 795.75 450.90 791.08 474.00 790.00
C 475.30 784.22 475.94 786.78 480.00 785.00
C 473.66 783.17 465.16 784.00 458.00 784.00 Z"/>
</g>
<g fill="#282726" fill-opacity="1.00" stroke="None">
<path d="
M 794.00 737.00 
C 796.67 737.00 799.33 737.00 802.00 737.00
C 802.92 737.00 804.10 737.18 805.00 737.00
C 805.06 737.00 801.20 734.56 799.00 735.00 C 796.80 735.44 794.29 736.96 794.00 737.00 Z"/>
</g>
<g fill="#979599" fill-opacity="1.00" stroke="None">
<path d="
M 802.00 737.00 
C 799.33 737.00 796.67 737.00 794.00 737.00
C 796.89 737.52 799.01 737.66 802.00 737.00 Z"/>
</g>
<g fill="#322E30" fill-opacity="1.00" stroke="None">
<path d="
M 166.00 747.00 
C 167.54 748.65 169.37 750.37 171.00 752.00
C 169.50 749.19 168.49 748.61 166.00 747.00 Z"/>
</g>
<g fill="#DAD5DC" fill-opacity="1.00" stroke="None">
<path d="
M 418.00 783.00 
C 431.33 783.00 444.67 783.00 458.00 783.00
C 460.00 783.00 462.00 783.06 464.00 783.00
C 446.88 781.99 427.92 782.00 410.00 782.00
C 412.04 782.20 415.23 783.00 418.00 783.00 Z"/>
</g>
<g fill="#857E87" fill-opacity="1.00" stroke="None">
<path d="
M 458.00 784.00 
C 458.00 784.00 457.90 783.02 458.00 783.00
C 444.67 783.00 431.33 783.00 418.00 783.00
C 430.48 784.21 444.73 784.00 458.00 784.00 Z"/>
</g>
<g fill="#434142" fill-opacity="1.00" stroke="None">
<path d="
M 480.00 925.00 
C 495.00 907.23 492.78 880.72 499.00 859.00
C 511.27 857.59 524.36 856.84 535.93 852.93 C 547.49 849.01 556.97 848.19 567.98 841.98 C 578.98 835.76 586.99 844.43 593.75 853.25 C 600.51 862.07 606.76 867.72 613.75 876.25 C 620.74 884.78 636.08 887.68 645.77 882.77 C 655.46 877.86 663.77 873.48 673.00 868.00
C 671.00 866.71 668.81 865.82 672.00 864.00
C 667.21 864.67 661.31 866.97 669.00 868.00
C 664.24 868.12 661.23 874.33 656.00 871.00
C 646.02 876.90 632.57 883.47 621.00 879.00
C 620.62 871.32 616.04 873.80 611.19 866.25 C 606.35 858.70 596.95 846.78 588.75 841.25 C 580.55 835.72 579.77 836.18 572.22 836.78 C 564.68 837.38 559.02 838.36 559.00 842.00
C 552.55 844.93 542.85 842.99 536.68 846.68 C 530.51 850.37 523.20 851.01 516.74 853.74 C 510.28 856.48 502.04 855.07 495.10 857.10 C 488.16 859.13 491.77 877.51 488.00 869.00
C 489.78 877.89 487.82 886.23 486.33 894.33 C 484.83 902.42 479.74 911.80 483.00 918.00
C 480.66 919.14 477.94 922.60 480.00 925.00 Z"/>
</g>
<g fill="#41373A" fill-opacity="1.00" stroke="None">
<path d="
M 352.00 854.00 
C 352.50 853.98 353.50 853.96 354.00 854.00
C 356.60 854.26 358.98 854.11 359.00 852.00
C 356.32 849.73 351.50 851.62 348.00 851.00
C 348.47 852.45 350.91 853.69 352.00 854.00 Z"/>
</g>
<g fill="#3A3133" fill-opacity="1.00" stroke="None">
<path d="
M 246.00 885.00 
C 247.25 885.64 251.57 885.19 253.00 885.00
C 254.18 884.84 254.25 884.31 255.00 884.00
C 256.07 878.85 242.16 883.03 246.00 885.00 Z"/>
</g>
<g fill="#BFB7BD" fill-opacity="1.00" stroke="None">
<path d="
M 253.00 885.00 
C 251.57 885.19 247.25 885.64 246.00 885.00
C 248.64 885.51 250.18 886.15 253.00 885.00 Z"/>
</g>
</svg>